<?xml version="1.0" standalone="no"?>
<!DOCTYPE svg PUBLIC "-//W3C//DTD SVG 20010904//EN"
 "http://www.w3.org/TR/2001/REC-SVG-20010904/DTD/svg10.dtd">
<svg version="1.0" xmlns="http://www.w3.org/2000/svg"
 width="450.000000pt" height="450.000000pt" viewBox="0 0 450.000000 450.000000"
 preserveAspectRatio="xMidYMid meet">
<metadata>
Created by potrace 1.14, written by Peter Selinger 2001-2017
</metadata>
<g transform="translate(0.000000,450.000000) scale(0.100000,-0.100000)"
fill="#000000" stroke="none">
<path d="M0 4415 c0 -69 3 -85 15 -85 8 0 15 -5 15 -11 0 -6 -7 -9 -15 -5 -13
5 -15 -17 -15 -160 0 -108 3 -163 10 -159 5 3 10 2 10 -4 0 -5 -4 -12 -10 -16
-5 -3 -6 -13 -3 -21 5 -13 9 -10 19 12 11 27 12 27 13 6 1 -19 5 -21 26 -16
15 4 25 2 25 -5 0 -6 -12 -12 -27 -12 l-28 -1 29 -7 c38 -8 44 -28 12 -42 -20
-9 -29 -9 -40 0 -8 7 -20 10 -26 6 -15 -9 -13 -182 3 -189 10 -5 10 -7 0 -12
-10 -4 -13 -59 -13 -224 l0 -219 22 -4 23 -4 -22 -2 c-21 -1 -23 -6 -23 -51 0
-30 4 -50 11 -50 8 0 8 -4 0 -14 -8 -10 -11 -58 -10 -151 l2 -136 29 -20 c15
-11 28 -16 28 -10 0 6 5 11 11 11 6 0 9 -7 5 -15 -4 -13 7 -14 77 -11 l82 4
-50 -13 c-27 -7 -54 -14 -60 -15 -20 -5 -74 13 -94 31 -11 11 -23 19 -26 19
-3 0 -5 -634 -5 -1410 l0 -1410 586 0 587 0 -50 52 c-27 29 -63 74 -81 100
-18 26 -46 55 -63 65 -39 23 -92 103 -114 171 -18 55 -25 60 -65 37 -35 -20
-38 -19 -37 13 2 33 13 42 53 42 18 0 34 6 37 14 3 7 41 26 84 41 74 27 264
130 271 147 2 4 9 8 16 8 21 0 59 38 50 51 -5 9 0 10 18 6 18 -5 30 -2 39 10
10 12 10 15 1 9 -17 -10 -42 17 -32 35 10 16 -5 29 -35 29 -20 -1 -20 -1 -1
-15 19 -15 19 -15 -1 -15 -32 0 -38 19 -15 43 17 17 24 18 36 8 8 -7 19 -10
23 -8 10 6 74 16 124 19 28 1 35 6 31 17 -4 11 -1 13 13 8 15 -6 16 -5 6 7
-10 12 -8 14 11 9 18 -4 20 -3 8 6 -18 13 -50 14 -50 2 0 -5 -9 -7 -20 -4 -11
3 -20 0 -20 -6 0 -6 7 -11 15 -11 8 0 15 -4 15 -9 0 -5 -20 -8 -45 -6 -25 1
-48 -2 -51 -7 -3 -5 -12 -4 -20 3 -8 6 -14 8 -14 4 0 -4 -6 -2 -14 4 -7 6 -21
8 -31 5 -21 -9 -33 10 -27 42 4 24 24 35 21 11 -4 -31 1 -37 19 -26 24 15 24
40 -1 62 -11 9 -16 17 -11 17 5 0 -8 16 -29 35 -21 19 -42 35 -48 35 -5 0 -9
7 -9 15 0 18 16 20 26 3 5 -8 11 -5 20 7 10 14 11 22 3 32 -15 17 -24 16 -44
-3 -14 -15 -15 -13 -13 14 1 17 6 28 12 25 5 -4 7 3 4 15 -4 12 -2 22 3 22 4
0 6 7 3 15 -4 8 -3 23 1 33 12 28 13 52 1 52 -6 0 -5 4 3 9 7 5 15 24 16 42 2
19 5 35 6 37 2 3 5 14 14 50 4 18 18 40 30 50 18 15 20 20 9 30 -24 22 -17 50
15 57 48 10 49 54 1 55 -9 0 -6 6 9 16 18 13 28 14 46 6 18 -8 25 -8 29 1 3 9
5 9 5 0 1 -17 21 -17 21 0 0 15 31 47 45 47 4 0 2 -6 -4 -14 -9 -11 -8 -15 5
-20 24 -9 25 -8 18 19 -5 19 -2 25 10 25 9 0 13 -6 10 -13 -7 -18 22 -41 41
-33 8 3 15 2 15 -3 0 -5 -11 -12 -25 -15 -24 -6 -25 -8 -10 -23 12 -12 19 -13
28 -4 16 16 32 14 18 -3 -10 -12 -8 -13 8 -9 13 3 21 1 21 -6 0 -7 -5 -9 -12
-5 -10 6 -10 4 0 -8 10 -13 10 -17 0 -20 -8 -3 -6 -7 6 -11 9 -4 15 -3 12 2
-3 5 1 11 9 15 9 3 15 0 15 -9 0 -21 18 -19 23 2 4 16 5 16 6 1 0 -9 -3 -20
-9 -23 -15 -9 -12 -22 5 -22 9 0 15 10 15 26 0 14 4 41 9 58 7 24 6 32 -2 30
-8 -1 -12 12 -11 38 1 22 0 32 -3 23 -2 -10 -9 -18 -15 -18 -6 0 -3 11 6 25
13 19 15 40 11 92 -3 37 -10 72 -15 77 -4 4 -6 24 -3 42 3 19 1 34 -4 34 -5 0
-10 19 -11 42 -5 113 -34 216 -60 214 -9 0 -21 -6 -27 -11 -5 -6 -9 -8 -8 -6
2 2 -2 10 -8 18 -7 8 -9 29 -5 56 5 31 4 39 -4 31 -7 -7 -12 -28 -13 -48 -1
-20 -5 -36 -10 -36 -4 0 -5 -5 -2 -10 8 -13 -44 9 -68 29 -48 40 -106 153
-136 266 -33 125 -34 166 -12 280 12 66 33 135 51 171 16 34 30 66 30 71 0 6
9 18 20 28 10 9 18 22 17 28 -1 6 3 11 8 12 6 0 16 4 23 8 7 5 12 3 12 -7 0
-8 -5 -18 -10 -21 -8 -5 -7 -12 2 -23 11 -13 10 -15 -8 -10 -11 3 -29 -1 -40
-9 -18 -14 -18 -15 4 -8 26 7 72 -17 115 -63 19 -20 35 -28 48 -25 14 4 19 0
19 -14 0 -34 13 -35 24 -1 11 33 43 50 55 30 4 -6 18 0 34 14 26 22 27 25 12
40 -14 15 -21 15 -82 0 -36 -9 -67 -15 -69 -13 -9 8 9 37 22 37 8 0 30 10 50
23 32 20 34 25 28 57 -4 19 -6 40 -6 45 1 6 1 26 2 45 2 53 11 91 20 85 4 -3
10 4 13 15 3 11 0 23 -5 27 -6 3 -8 1 -5 -4 4 -6 0 -13 -8 -17 -22 -8 -19 6
14 66 16 29 34 71 41 93 7 22 20 45 29 51 12 9 13 15 4 26 -9 11 -8 16 8 26
10 7 19 17 19 22 0 6 8 27 17 48 9 20 17 42 18 47 2 19 37 65 46 59 5 -3 6 2
3 10 -3 9 3 19 16 26 11 6 18 16 14 21 -3 6 5 23 19 37 13 15 30 37 36 50 6
12 18 22 26 22 8 0 15 7 15 15 0 8 4 15 9 15 5 0 18 15 28 33 21 34 42 43 166
77 37 10 74 23 81 29 15 13 210 34 296 32 60 -1 234 -26 290 -42 19 -6 60 -11
90 -12 53 -2 55 -1 61 28 4 17 7 22 8 13 0 -9 6 -20 13 -24 8 -5 9 -1 5 12 -7
18 -6 18 9 -1 16 -19 16 -18 10 25 -4 32 -3 41 4 30 5 -8 10 -22 10 -31 0 -9
7 -22 15 -29 13 -11 15 -6 15 39 0 28 5 51 10 51 14 0 32 -49 24 -62 -4 -6 1
-8 15 -3 15 5 21 2 21 -10 0 -21 60 -47 77 -33 9 7 24 4 50 -12 32 -19 42 -20
80 -10 24 6 49 8 55 4 6 -4 6 1 -1 14 -7 14 -8 23 -1 27 5 3 10 -1 10 -9 0 -9
7 -16 16 -16 8 0 12 -4 9 -10 -3 -5 5 -21 19 -35 15 -14 26 -30 26 -35 0 -6 9
-10 20 -10 22 0 27 -15 7 -24 -9 -3 -8 -8 4 -18 10 -8 14 -20 9 -33 -6 -18 15
-72 34 -86 4 -4 3 -8 -4 -11 -10 -3 -10 -16 -1 -58 6 -30 12 -71 13 -90 2 -44
14 -60 39 -55 15 3 19 -1 17 -13 -2 -11 -11 -16 -26 -14 -27 4 -28 -3 -2 -31
12 -12 18 -28 14 -37 -9 -21 -6 -69 10 -135 6 -23 5 -26 -3 -15 -16 22 -14 2
8 -102 11 -54 14 -91 9 -96 -12 -12 9 -55 22 -47 11 7 24 -31 15 -45 -3 -5 -1
-10 4 -10 15 0 14 -26 -4 -60 -14 -27 -14 -30 4 -40 13 -7 22 -7 26 0 9 15 25
12 25 -4 0 -7 26 -23 60 -36 71 -27 84 -40 75 -79 -5 -24 -3 -30 15 -36 20 -6
21 -12 15 -52 -9 -61 -12 -67 -38 -78 -12 -6 -23 -20 -25 -32 -2 -14 -8 -20
-17 -16 -9 3 -18 -4 -24 -20 -5 -13 -16 -27 -24 -30 -8 -3 -68 -4 -133 -2 -66
2 -113 1 -106 -2 6 -2 10 -9 7 -13 -3 -5 -1 -11 5 -15 5 -3 10 -1 10 4 0 17
18 13 40 -9 24 -24 26 -34 4 -22 -9 5 -25 7 -35 5 -14 -4 -16 -10 -8 -32 6
-17 6 -36 0 -52 -7 -17 -10 -19 -10 -6 -1 9 -5 17 -10 17 -15 0 -22 -32 -10
-46 8 -10 17 -9 45 7 41 23 44 23 44 4 0 -8 -14 -17 -35 -21 -19 -3 -35 -10
-35 -14 0 -4 -14 -10 -32 -14 -29 -6 -30 -7 -14 -24 18 -21 12 -34 -12 -25
-11 5 -14 2 -9 -10 3 -8 3 -17 -1 -19 -13 -6 -52 -98 -42 -98 6 0 10 -4 10
-10 0 -5 -6 -10 -14 -10 -8 0 -17 -7 -20 -16 -9 -23 -8 -27 10 -20 8 3 12 2 9
-4 -3 -6 -15 -10 -26 -10 -12 0 -19 -7 -19 -18 0 -10 -4 -22 -8 -28 -5 -5 -17
-36 -27 -69 -10 -33 -20 -66 -23 -74 -3 -9 -1 -12 6 -7 8 5 10 2 6 -8 -3 -9
-10 -16 -14 -16 -11 0 -20 -39 -13 -56 3 -8 12 -14 19 -14 16 0 37 -46 28 -61
-8 -14 -24 0 -17 16 3 10 -2 15 -17 15 -11 0 -19 -4 -16 -9 3 -5 0 -11 -8 -14
-14 -6 -29 -57 -16 -57 4 0 6 -17 5 -37 -2 -29 -7 -37 -24 -38 -31 -2 -33 -9
-11 -35 24 -28 26 -44 4 -36 -14 5 -15 4 -4 -9 11 -13 8 -15 -17 -15 -22 0
-29 -5 -29 -19 0 -11 5 -19 11 -18 9 2 10 -2 7 -38 -1 -8 -9 -15 -17 -15 -10
0 -15 -10 -15 -27 0 -21 -3 -24 -10 -13 -8 13 -10 13 -14 0 -3 -8 -6 -26 -8
-40 -2 -14 -9 -24 -16 -23 -6 2 -14 -9 -17 -25 -8 -35 -18 -55 -30 -55 -19 0
-37 -37 -30 -66 5 -24 3 -28 -16 -27 -16 1 -22 -6 -25 -28 l-3 -28 23 21 c21
20 24 20 30 6 10 -28 7 -45 -9 -45 -8 0 -14 -4 -12 -9 1 -5 -6 -16 -17 -24
-18 -13 -18 -15 2 -59 17 -38 25 -46 55 -52 34 -6 35 -8 26 -39 -10 -35 -4
-67 13 -67 6 0 6 6 -2 15 -11 13 -8 15 13 15 14 0 29 5 32 10 10 17 25 11 18
-7 -4 -11 -3 -14 6 -9 7 5 21 0 34 -12 l22 -21 1 40 c0 33 -2 38 -18 33 -18
-5 -48 16 -48 35 0 6 9 11 20 11 11 0 20 5 20 10 0 6 7 10 15 10 8 0 15 5 15
12 0 9 3 9 12 0 9 -9 8 -16 -5 -30 -16 -17 -16 -20 -2 -32 14 -11 19 -7 16 13
0 4 4 7 9 7 5 0 9 5 7 12 -3 18 25 20 47 3 16 -12 17 -17 6 -30 -12 -14 -11
-18 0 -25 8 -5 17 -7 21 -4 4 2 9 -2 12 -10 4 -9 -3 -16 -19 -20 -24 -6 -31
-20 -15 -30 5 -3 7 -16 4 -27 -4 -14 0 -25 11 -31 9 -5 14 -13 11 -18 -7 -11
-53 5 -76 26 -15 13 -16 12 -12 -11 3 -14 1 -26 -6 -26 -6 -1 -17 -2 -23 -3
-7 -1 -11 -8 -9 -16 13 -55 -2 -122 -37 -162 -8 -9 -15 -28 -16 -43 -1 -28 -3
-29 -91 -45 -33 -6 -67 -17 -75 -23 -23 -18 -43 -72 -35 -98 5 -14 4 -19 -4
-15 -10 7 -12 3 -15 -31 -1 -7 -29 -49 -62 -95 -34 -46 -80 -111 -103 -145
l-42 -63 259 0 259 0 28 65 c15 36 25 72 21 80 -3 9 -2 14 3 11 5 -3 18 16 29
42 32 72 26 30 -8 -55 -35 -88 -34 -81 -14 -79 19 1 50 -39 36 -48 -5 -3 -21
3 -35 14 -26 20 -26 20 -36 1 -6 -11 -11 -22 -11 -25 0 -3 105 -6 233 -6 l232
1 -35 29 c-19 17 -41 30 -50 30 -30 1 -53 27 -46 53 5 23 9 24 40 17 38 -8 63
1 51 20 -5 9 -4 11 3 6 7 -4 12 -13 12 -21 0 -7 12 -28 27 -46 18 -21 24 -34
15 -37 -6 -2 -12 -15 -12 -28 l0 -24 216 0 c141 0 213 3 209 10 -3 5 -2 10 4
10 6 0 13 11 17 24 6 23 10 25 94 28 84 3 89 2 86 -16 -1 -11 -8 -22 -14 -24
-6 -2 -8 -10 -5 -18 4 -10 23 -14 69 -14 l64 0 0 148 c0 137 -1 149 -21 165
-18 16 -23 17 -37 4 -19 -17 -84 -16 -90 2 -2 6 -19 11 -37 11 -19 0 -35 6
-38 14 -4 9 -14 12 -26 9 -15 -4 -21 -1 -21 10 0 8 5 17 11 19 17 6 17 51 0
64 -13 10 -13 15 -2 27 7 9 11 26 9 39 -2 19 1 23 25 23 16 0 34 8 42 19 17
22 11 36 -14 36 -27 0 -55 36 -46 57 5 10 9 34 9 53 1 22 6 34 13 33 7 -2 10
4 7 12 -4 10 0 15 14 15 12 0 24 5 27 11 5 6 23 8 49 4 22 -3 52 -7 66 -8 19
-2 25 -8 27 -31 3 -38 -15 -72 -30 -57 -14 14 -47 14 -47 1 0 -5 4 -10 9 -10
5 0 12 -8 15 -18 8 -23 47 -23 70 0 14 15 15 21 5 40 -9 16 -9 23 0 26 17 6
16 338 -1 346 -10 5 -10 7 0 12 17 8 18 474 0 492 -9 9 -9 12 0 12 8 0 12 18
12 49 0 60 -7 81 -29 82 -12 0 -10 3 6 11 23 11 23 12 22 259 -1 137 -4 249
-8 249 -11 0 -33 -17 -33 -26 -1 -20 -11 -34 -24 -34 -8 0 -14 5 -14 11 0 5
-8 9 -17 8 -38 -3 -63 1 -63 12 0 8 14 10 45 6 46 -7 56 1 30 23 -8 7 -12 17
-9 22 4 6 10 6 17 -1 6 -6 19 -11 29 -11 15 0 17 5 12 26 -6 23 -4 25 15 19
21 -6 21 -6 21 173 0 151 -3 182 -16 193 -14 11 -14 13 0 21 28 16 19 43 -14
43 -16 0 -30 -5 -30 -11 0 -7 -8 -14 -18 -16 -13 -4 -17 1 -16 20 1 28 -17 72
-29 72 -4 0 -3 9 3 19 14 28 13 41 -5 41 -9 0 -18 6 -21 14 -8 22 -63 41 -77
27 -8 -8 -7 -11 4 -11 19 0 44 -44 35 -59 -10 -16 -41 -14 -56 4 -10 12 -10
15 4 15 19 0 22 19 4 22 -7 1 -26 2 -43 2 -20 1 -33 8 -43 26 l-14 25 6 -27
c3 -15 2 -30 -4 -33 -5 -3 -10 -2 -10 3 0 5 -12 18 -27 27 -19 13 -31 15 -43
8 -13 -9 -16 -6 -18 13 -1 20 3 24 24 24 62 0 114 59 84 95 -12 14 -15 14 -30
0 -24 -22 -40 -18 -40 10 0 14 8 29 20 35 11 6 20 7 20 3 0 -4 6 1 13 10 6 9
29 23 49 32 31 12 39 13 50 1 12 -11 17 -11 33 0 26 19 47 17 44 -3 -3 -34 1
-41 26 -45 17 -4 26 0 30 12 9 30 54 34 81 9 l24 -22 0 234 0 235 -35 12 c-23
9 -32 18 -28 27 3 8 0 15 -6 15 -6 0 -11 5 -11 10 0 16 19 12 51 -11 l29 -20
0 21 c0 12 -5 31 -11 43 -9 16 -9 22 0 25 15 5 14 99 -1 105 -10 4 -10 6 -1 6
10 1 12 87 13 371 l0 370 -570 0 c-500 0 -570 -2 -570 -15 0 -8 6 -15 14 -15
16 0 31 -18 23 -26 -9 -9 -88 36 -82 47 4 6 -68 9 -204 9 -169 -1 -214 -4
-225 -16 -13 -12 -17 -12 -30 1 -18 18 -77 20 -94 3 -9 -9 -12 -9 -12 0 0 9
-78 12 -320 12 -207 0 -320 -4 -320 -10 0 -5 -7 -10 -15 -10 -8 0 -15 4 -15 9
0 14 -123 13 -133 -2 -7 -9 -10 -9 -14 1 -3 9 -44 12 -154 12 -82 0 -149 -4
-149 -8 0 -4 5 -13 11 -19 9 -9 7 -12 -10 -10 -16 1 -20 6 -15 20 5 16 0 18
-63 15 -66 -3 -68 -4 -65 -28 2 -14 -5 -34 -15 -45 -10 -11 -19 -31 -20 -44
-3 -32 -9 -36 -27 -18 -8 8 -13 16 -11 19 2 2 0 21 -5 43 -8 35 -7 42 13 57
22 17 21 18 -30 18 -46 0 -51 -2 -46 -20 4 -14 0 -20 -10 -20 -9 0 -18 -9 -22
-19 -6 -20 -35 -37 -35 -21 0 6 4 10 9 10 8 0 41 54 41 67 0 9 -49 1 -54 -9
-5 -10 -7 -10 -12 -1 -4 10 -138 13 -602 13 -385 0 -592 -4 -582 -10 12 -8 9
-10 -12 -10 -16 0 -28 5 -28 10 0 6 -9 10 -20 10 -18 0 -20 -7 -20 -85z m1891
42 c-8 -8 -14 -8 -23 1 -9 9 -8 12 5 12 9 0 17 6 18 13 0 9 2 8 6 -1 3 -8 0
-19 -6 -25z m1312 -12 c10 -24 15 -50 11 -57 -5 -8 -10 -5 -15 12 -4 14 -12
40 -18 58 -14 48 1 39 22 -13z m462 15 c7 -12 -12 -40 -26 -40 -5 0 -9 11 -9
25 0 25 23 35 35 15z m-1605 -4 c0 -3 -4 -8 -10 -11 -5 -3 -10 -1 -10 4 0 6 5
11 10 11 6 0 10 -2 10 -4z m1754 -74 c4 -7 4 -12 -1 -12 -16 0 -32 16 -41 40
-7 19 -5 28 7 37 14 10 17 7 22 -21 3 -17 9 -37 13 -44z m-1838 41 c-10 -10
-19 5 -10 18 6 11 8 11 12 0 2 -7 1 -15 -2 -18z m1515 6 c8 -15 8 -19 0 -15
-18 11 -52 -4 -61 -27 -8 -21 -9 -20 -9 5 -1 20 7 31 27 42 15 8 28 15 29 16
1 0 7 -10 14 -21z m-2861 1 c0 -5 -2 -10 -4 -10 -3 0 -8 5 -11 10 -3 6 -1 10
4 10 6 0 11 -4 11 -10z m-521 -32 c9 -15 8 -18 -7 -18 -26 0 -34 -11 -21 -27
20 -23 -2 -14 -32 14 -40 38 -37 52 10 50 25 -1 43 -7 50 -19z m101 2 c0 -5
-4 -10 -10 -10 -5 0 -10 5 -10 10 0 6 5 10 10 10 6 0 10 -4 10 -10z m414 -5
c-6 -16 -24 -21 -24 -7 0 11 11 22 21 22 5 0 6 -7 3 -15z m900 -10 c-3 -14 -2
-25 4 -25 6 0 8 -9 5 -20 -7 -26 -19 -26 -26 1 -3 12 -10 18 -16 14 -6 -3 -9
0 -6 9 3 9 7 23 10 31 2 8 11 15 20 15 11 0 14 -6 9 -25z m-1284 -6 c0 -11 -4
-17 -10 -14 -5 3 -10 13 -10 21 0 8 5 14 10 14 6 0 10 -9 10 -21z m3770 1 c0
-5 -8 -10 -17 -10 -15 0 -16 2 -3 10 19 12 20 12 20 0z m-2070 -10 c0 -5 -4
-10 -9 -10 -5 0 -18 -3 -28 -6 -16 -5 -16 -4 1 10 23 18 36 20 36 6z m2024 -6
c4 -10 1 -14 -6 -12 -15 5 -23 28 -10 28 5 0 13 -7 16 -16z m-179 -4 c3 -5 -1
-10 -10 -10 -9 0 -13 5 -10 10 3 6 8 10 10 10 2 0 7 -4 10 -10z m-1985 -10 c0
-5 -4 -10 -10 -10 -5 0 -10 5 -10 10 0 6 5 10 10 10 6 0 10 -4 10 -10z m1585
0 c3 -5 -1 -10 -10 -10 -9 0 -13 5 -10 10 3 6 8 10 10 10 2 0 7 -4 10 -10z
m-3148 -6 c-3 -3 -12 -4 -19 -1 -8 3 -5 6 6 6 11 1 17 -2 13 -5z m2968 -12
c-3 -3 -11 0 -18 7 -9 10 -8 11 6 5 10 -3 15 -9 12 -12z m71 -10 c-8 -2 -17
-10 -20 -18 -5 -12 -2 -12 15 -3 19 10 20 9 9 -11 -11 -21 -40 -24 -47 -4 -2
6 6 23 18 38 17 21 24 25 30 14 5 -8 3 -14 -5 -16z m570 -18 c-8 -21 -11 -17
-20 21 -7 28 -6 29 10 13 10 -10 14 -23 10 -34z m74 36 c0 -5 -4 -10 -10 -10
-5 0 -10 5 -10 10 0 6 5 10 10 10 6 0 10 -4 10 -10z m150 -10 c0 -5 -4 -10
-10 -10 -5 0 -10 5 -10 10 0 6 5 10 10 10 6 0 10 -4 10 -10z m-2880 -20 c0 -5
-4 -10 -10 -10 -5 0 -10 5 -10 10 0 6 5 10 10 10 6 0 10 -4 10 -10z m738 -18
c-11 -2 -18 -13 -18 -28 0 -13 -5 -24 -11 -24 -5 0 -7 5 -4 11 4 6 -1 16 -11
24 -20 14 -20 14 26 28 8 2 20 2 25 -2 6 -3 2 -7 -7 -9z m1416 3 c3 -8 2 -15
-3 -15 -4 0 -13 -10 -18 -22 -10 -21 -11 -19 -10 15 1 37 19 51 31 22z m-3163
-15 c11 0 18 -4 14 -9 -3 -6 -14 -9 -25 -8 -10 1 -16 5 -14 9 3 4 0 8 -6 8 -6
0 -8 5 -4 12 6 9 9 9 12 0 2 -7 13 -12 23 -12z m959 -21 c0 -12 -55 -18 -62
-6 -18 29 27 55 50 28 6 -8 12 -18 12 -22z m2503 -2 c-3 -6 -11 -3 -19 8 -7
10 -11 22 -7 28 3 6 11 3 19 -8 7 -10 11 -22 7 -28z m-3095 15 c6 -18 -15 -14
-22 4 -4 10 -1 14 6 12 6 -2 14 -10 16 -16z m342 -2 c0 -5 -7 -10 -16 -10 -8
0 -12 5 -9 10 3 6 10 10 16 10 5 0 9 -4 9 -10z m40 -10 c0 -5 -7 -10 -16 -10
-8 0 -12 5 -9 10 3 6 10 10 16 10 5 0 9 -4 9 -10z m494 -29 c-9 -10 -26 18
-18 30 5 9 9 8 14 -7 4 -10 6 -21 4 -23z m1951 29 c17 -8 16 -8 -7 -7 -16 1
-28 5 -28 9 0 10 9 9 35 -2z m92 -63 c6 1 14 -4 17 -12 4 -12 0 -14 -19 -9
-19 5 -25 2 -25 -9 0 -9 4 -18 9 -21 13 -9 -17 -66 -35 -66 -8 0 -14 9 -14 21
0 14 -5 19 -14 16 -9 -4 -13 0 -12 11 2 9 8 18 14 20 6 2 9 9 6 17 -3 7 3 16
15 20 16 5 19 12 14 43 l-5 37 19 -35 c10 -19 24 -34 30 -33z m286 35 c23 -20
22 -52 -1 -52 -25 0 -66 45 -59 64 7 17 31 12 60 -12z m-3059 -34 c-10 -16
-25 17 -17 38 6 15 7 15 15 -5 4 -13 5 -28 2 -33z m546 38 c0 -7 -9 -16 -20
-19 -23 -6 -26 3 -8 21 16 16 28 15 28 -2z m240 -15 c-10 -20 -30 -29 -30 -14
0 10 33 44 37 39 3 -2 0 -14 -7 -25z m493 10 c3 -13 -1 -21 -13 -24 -13 -3
-16 1 -12 19 5 29 18 31 25 5z m-1723 -11 c0 -12 -37 -14 -44 -2 -2 4 6 9 20
10 13 1 24 -3 24 -8z m728 -13 c2 -9 -3 -17 -10 -17 -8 0 -14 9 -14 20 0 24
20 21 24 -3z m2398 -1 c1 -19 -2 -22 -18 -18 -18 4 -18 6 -2 23 21 23 19 24
20 -5z m167 4 c-4 -4 -19 -11 -33 -15 l-25 -6 25 20 c22 18 53 19 33 1z m102
-10 c8 7 16 7 19 2 3 -6 -6 -17 -20 -27 -24 -16 -27 -16 -45 1 -27 24 -24 35
7 24 18 -7 31 -7 39 0z m-2905 -10 c0 -5 -2 -10 -4 -10 -3 0 -8 5 -11 10 -3 6
-1 10 4 10 6 0 11 -4 11 -10z m685 0 c-3 -5 -10 -10 -16 -10 -5 0 -9 5 -9 10
0 6 7 10 16 10 8 0 12 -4 9 -10z m-455 -45 c-6 -15 -13 -25 -16 -23 -2 3 1 17
7 32 16 34 23 27 9 -9z m2745 25 c-3 -5 -10 -10 -16 -10 -5 0 -9 5 -9 10 0 6
7 10 16 10 8 0 12 -4 9 -10z m306 -33 c-8 -8 -11 -7 -11 4 0 20 13 34 18 19 3
-7 -1 -17 -7 -23z m-2942 14 c7 -5 10 -14 7 -20 -4 -6 -11 -9 -16 -6 -5 3 -15
-1 -23 -10 -13 -12 -15 -11 -19 10 -3 14 -3 27 0 30 8 8 35 6 51 -4z m151 -10
c0 -5 -7 -22 -15 -37 -13 -26 -15 -27 -15 -7 0 16 -5 21 -20 18 -30 -6 -24 12
8 23 35 13 42 14 42 3z m549 -27 c-17 -20 -24 -17 -24 10 0 20 3 22 18 14 15
-7 16 -12 6 -24z m88 30 c-3 -3 -12 -4 -19 -1 -8 3 -5 6 6 6 11 1 17 -2 13 -5z
m-612 -48 c-4 -20 -11 -33 -16 -30 -8 5 -3 47 8 67 10 17 14 -3 8 -37z m-235
19 c0 -9 -6 -12 -15 -9 -8 4 -15 10 -15 15 0 5 7 9 15 9 8 0 15 -7 15 -15z
m-890 -8 c0 -2 -9 -12 -19 -21 -19 -17 -19 -17 -16 1 2 10 4 19 4 21 1 3 31 2
31 -1z m230 -7 c0 -5 -7 -10 -15 -10 -8 0 -15 5 -15 10 0 6 7 10 15 10 8 0 15
-4 15 -10z m3212 -15 c6 -27 0 -38 -13 -29 -12 7 -12 54 0 54 5 0 11 -11 13
-25z m-2482 2 c0 -20 -14 -34 -35 -38 -11 -2 -24 -14 -30 -27 -11 -25 -25 -29
-25 -7 0 7 -8 18 -17 23 -13 8 -11 11 15 17 18 3 36 14 41 24 11 19 51 26 51
8z m-122 -8 c-2 -6 -8 -10 -13 -10 -5 0 -11 4 -13 10 -2 6 4 11 13 11 9 0 15
-5 13 -11z m2772 -15 c0 -8 -4 -12 -10 -9 -5 3 -10 13 -10 21 0 8 5 12 10 9 6
-3 10 -13 10 -21z m-3700 12 c0 -3 -4 -8 -10 -11 -5 -3 -10 -1 -10 4 0 6 5 11
10 11 6 0 10 -2 10 -4z m142 -23 c10 -9 18 -22 18 -30 0 -7 6 -13 14 -13 20 0
29 -16 21 -40 -9 -28 -51 -26 -66 2 l-12 22 -8 -22 c-8 -22 -16 -22 -59 6 -2
2 2 7 10 12 12 7 11 10 -5 16 -11 5 -26 14 -33 21 -8 7 -18 10 -24 7 -7 -4 -8
-2 -4 4 9 15 36 16 36 2 0 -5 7 -10 15 -10 10 0 12 6 8 18 -6 15 -5 15 12 -2
15 -15 20 -16 24 -5 4 13 20 28 30 29 3 0 13 -7 23 -17z m288 -7 c0 -11 -19
-15 -25 -6 -3 5 1 10 9 10 9 0 16 -2 16 -4z m3304 -12 c4 -10 1 -14 -6 -12
-15 5 -23 28 -10 28 5 0 13 -7 16 -16z m-2710 -24 c-4 -19 -2 -30 5 -30 6 0
11 -4 11 -9 0 -5 -11 -4 -23 2 -23 11 -23 12 -8 39 20 35 22 35 15 -2z m176
20 c0 -5 12 -10 27 -10 25 0 25 -1 9 -19 -10 -11 -15 -25 -11 -31 6 -9 2 -9
-13 -1 -14 7 -18 17 -15 31 3 11 0 20 -6 20 -6 0 -11 5 -11 10 0 6 5 10 10 10
6 0 10 -4 10 -10z m-372 -18 c3 -9 -2 -13 -14 -10 -9 1 -19 9 -22 16 -3 9 2
13 14 10 9 -1 19 -9 22 -16z m302 -53 c0 -5 -4 -9 -10 -9 -5 0 -10 7 -10 16 0
8 5 12 10 9 6 -3 10 -10 10 -16z m2655 12 c3 -5 1 -12 -5 -16 -5 -3 -10 1 -10
9 0 18 6 21 15 7z m-3527 -21 c12 -19 11 -20 -8 -8 -20 13 -27 28 -12 28 4 0
13 -9 20 -20z m685 -20 c-9 -32 -24 -35 -19 -3 2 15 5 29 5 31 1 2 5 1 10 -2
5 -3 7 -15 4 -26z m-403 0 c0 -5 -5 -10 -11 -10 -5 0 -7 5 -4 10 3 6 8 10 11
10 2 0 4 -4 4 -10z m130 -30 c0 -5 -4 -10 -10 -10 -5 0 -10 5 -10 10 0 6 5 10
10 10 6 0 10 -4 10 -10z m3410 -4 c0 -3 -4 -8 -10 -11 -5 -3 -10 -1 -10 4 0 6
5 11 10 11 6 0 10 -2 10 -4z m125 -6 c-3 -5 -12 -10 -18 -10 -7 0 -6 4 3 10
19 12 23 12 15 0z m180 0 c-3 -5 -11 -10 -16 -10 -6 0 -7 5 -4 10 3 6 11 10
16 10 6 0 7 -4 4 -10z m-4215 -20 c0 -5 -5 -10 -11 -10 -5 0 -7 5 -4 10 3 6 8
10 11 10 2 0 4 -4 4 -10z m545 -20 c-7 -21 -55 -79 -55 -66 0 10 30 67 44 82
15 16 19 10 11 -16z m197 -2 c-7 -7 -12 -8 -12 -2 0 14 12 26 19 19 2 -3 -1
-11 -7 -17z m2943 12 c-3 -5 -12 -10 -18 -10 -7 0 -6 4 3 10 19 12 23 12 15 0z
m335 -1 c0 -5 -4 -8 -9 -5 -10 7 -24 -22 -16 -34 7 -11 -26 -112 -43 -129 -7
-7 -11 -19 -9 -26 8 -20 -27 -34 -48 -19 -17 12 -17 14 -2 14 11 0 17 8 17 21
0 11 7 33 14 47 8 15 23 45 32 67 26 59 64 98 64 64z m207 -6 c2 -6 -5 -13
-17 -16 -12 -3 -20 0 -20 7 0 26 29 33 37 9z m-4277 -2 c0 -5 -6 -11 -12 -14
-10 -3 -8 -10 5 -25 13 -14 15 -22 7 -27 -13 -8 -60 13 -60 27 0 5 -9 4 -21
-2 -18 -10 -40 -7 -28 4 35 32 109 57 109 37z m447 -57 c-9 -9 -28 6 -21 18 4
6 10 6 17 -1 6 -6 8 -13 4 -17z m-520 -26 c-3 -8 -6 -5 -6 6 -1 11 2 17 5 13
3 -3 4 -12 1 -19z m4376 -44 c7 -7 -22 -54 -33 -54 -7 0 -7 35 -1 58 2 5 28 2
34 -4z m-3970 -40 c-7 -18 -30 -18 -49 1 -23 22 -9 36 26 24 19 -7 27 -15 23
-25z m3874 -98 c-4 -12 -31 35 -41 74 -5 15 3 7 19 -19 14 -24 24 -49 22 -55z
m-657 70 c0 -3 -4 -8 -10 -11 -5 -3 -10 -1 -10 4 0 6 5 11 10 11 6 0 10 -2 10
-4z m730 -15 c0 -6 -4 -13 -10 -16 -5 -3 -10 1 -10 9 0 9 5 16 10 16 6 0 10
-4 10 -9z m-3012 -53 c17 3 15 -15 -2 -21 -16 -6 -27 13 -25 46 1 20 2 20 8
-3 4 -14 13 -24 19 -22z m-661 -4 c-3 -3 -12 -4 -19 -1 -8 3 -5 6 6 6 11 1 17
-2 13 -5z m503 -75 c0 -11 -4 -18 -10 -14 -5 3 -7 12 -3 20 7 21 13 19 13 -6z
m2550 11 c0 -5 -4 -10 -10 -10 -5 0 -10 5 -10 10 0 6 5 10 10 10 6 0 10 -4 10
-10z m220 5 c0 -3 -4 -13 -9 -23 -5 -9 -14 -29 -22 -45 -11 -25 -14 -26 -30
-11 -11 10 -19 12 -24 5 -9 -16 -25 -13 -25 3 0 18 38 46 54 40 6 -2 18 5 26
16 13 19 30 27 30 15z m-2623 -27 c-3 -8 -6 -5 -6 6 -1 11 2 17 5 13 3 -3 4
-12 1 -19z m-867 -67 c0 -12 -20 -25 -27 -18 -7 7 6 27 18 27 5 0 9 -4 9 -9z
m3230 -5 c0 -2 -7 -6 -15 -10 -8 -3 -15 -1 -15 4 0 6 7 10 15 10 8 0 15 -2 15
-4z m-140 -46 c0 -5 -2 -10 -4 -10 -3 0 -8 5 -11 10 -3 6 -1 10 4 10 6 0 11
-4 11 -10z m-2016 -25 c-9 -14 -18 -25 -20 -25 -2 0 2 11 8 25 6 14 15 25 20
25 5 0 1 -11 -8 -25z m2290 9 c20 -8 21 -24 2 -24 -8 0 -16 7 -20 15 -6 17 -4
18 18 9z m366 -13 c0 -10 10 -25 23 -34 32 -22 18 -28 -28 -13 -41 14 -51 27
-41 51 8 22 46 19 46 -4z m-3517 -15 c4 -10 1 -13 -9 -9 -15 6 -19 23 -5 23 5
0 11 -7 14 -14z m87 5 c0 -10 -30 -24 -37 -17 -3 3 -2 9 2 15 8 13 35 15 35 2z
m2834 -6 c-4 -8 -10 -15 -15 -15 -5 0 -9 7 -9 15 0 8 7 15 15 15 9 0 12 -6 9
-15z m-2984 -25 c0 -5 -8 -10 -17 -10 -15 0 -16 2 -3 10 19 12 20 12 20 0z
m164 -5 c6 -17 4 -18 -18 -9 -20 8 -21 24 -2 24 8 0 16 -7 20 -15z m2940 6 c7
-11 -18 -21 -52 -20 l-27 1 30 13 c36 17 42 18 49 6z m-2440 -10 c3 -5 -1 -12
-10 -15 -20 -8 -29 -1 -19 13 8 13 22 14 29 2z m-798 -28 c-7 -7 -26 7 -26 19
0 6 6 6 15 -2 9 -7 13 -15 11 -17z m3452 -6 c2 -19 9 -27 23 -27 10 0 19 -4
19 -9 0 -5 -19 -9 -41 -9 -31 -1 -39 2 -31 10 8 8 7 14 -4 22 -19 14 -8 48 15
44 9 -2 17 -15 19 -31z m38 18 c17 -16 14 -18 -10 -9 -9 3 -16 10 -16 15 0 13
9 11 26 -6z m-3056 -5 c0 -5 -4 -10 -10 -10 -5 0 -10 5 -10 10 0 6 5 10 10 10
6 0 10 -4 10 -10z m2924 -52 c-4 -12 0 -18 11 -18 13 0 13 -3 -4 -21 -12 -13
-26 -19 -35 -16 -10 4 -16 1 -16 -7 0 -8 -6 -17 -12 -20 -7 -2 -2 -4 12 -3 16
1 24 -3 22 -11 -1 -8 2 -11 9 -6 9 5 10 2 6 -10 -4 -10 -3 -15 3 -11 6 3 13
-1 16 -10 4 -9 9 -12 13 -7 3 6 24 14 46 18 36 6 39 6 26 -9 -21 -26 2 -50 35
-35 13 6 27 8 31 5 10 -10 -30 -37 -45 -32 -46 16 -62 17 -62 1 0 -10 6 -13
15 -10 8 4 15 2 15 -4 0 -14 -26 -34 -42 -31 -7 1 -24 0 -38 -1 -18 -2 -20 -4
-7 -7 26 -7 21 -19 -19 -42 -38 -23 -64 -27 -64 -11 0 6 7 10 16 10 13 0 14 3
4 15 -7 8 -10 21 -7 28 3 8 -9 21 -31 33 -21 10 -44 25 -52 33 -12 12 -11 13
8 7 13 -5 22 -3 22 3 0 6 -5 11 -11 11 -5 0 -8 4 -5 9 4 5 1 11 -6 13 -14 5 6
30 32 41 10 4 8 6 -7 6 -12 1 -26 -6 -31 -14 -11 -20 -42 -9 -42 15 0 10 -3
25 -6 34 -3 9 -1 16 5 16 6 0 11 -7 11 -15 0 -8 9 -15 19 -15 14 0 26 16 42
55 12 30 26 55 31 55 9 0 0 -29 -16 -49 -8 -10 -5 -17 9 -27 26 -19 39 -18 60
6 18 20 17 20 -13 20 -39 0 -40 7 -4 41 l27 27 17 -22 c10 -11 15 -29 12 -38z
m-2734 45 c-1 -18 -18 -35 -24 -24 -4 6 -4 16 -1 21 7 12 25 13 25 3z m-580
-28 c0 -9 -6 -12 -15 -9 -8 4 -15 10 -15 15 0 5 7 9 15 9 8 0 15 -7 15 -15z
m-149 -12 c12 -15 12 -16 -2 -11 -9 4 -22 1 -28 -5 -8 -8 -11 -7 -11 4 0 32
21 37 41 12z m3916 -5 c28 -26 30 -48 4 -48 -14 0 -18 5 -14 20 4 16 2 19 -11
14 -9 -3 -16 -10 -16 -15 0 -5 -11 -9 -24 -9 -31 0 -39 31 -11 47 30 17 46 15
72 -9z m-3737 -13 c-7 -8 -17 -12 -22 -9 -5 3 -1 12 9 19 22 17 30 11 13 -10z
m-232 3 c-3 -7 -11 -13 -18 -13 -7 0 -15 6 -17 13 -3 7 4 12 17 12 13 0 20 -5
18 -12z m542 -14 c0 -2 -7 -4 -15 -4 -8 0 -15 4 -15 10 0 5 7 7 15 4 8 -4 15
-8 15 -10z m-420 -23 c0 -15 -15 -21 -38 -14 -32 8 -27 23 8 23 17 0 30 -4 30
-9z m3465 -1 c-3 -5 -11 -10 -16 -10 -6 0 -7 5 -4 10 3 6 11 10 16 10 6 0 7
-4 4 -10z m-42 -27 c6 -32 -9 -56 -22 -35 -9 15 -2 62 9 62 4 0 10 -12 13 -27z
m209 5 c-7 -7 -12 -8 -12 -2 0 6 3 14 7 17 3 4 9 5 12 2 2 -3 -1 -11 -7 -17z
m-97 -18 c-4 -12 -9 -19 -12 -17 -3 3 -2 15 2 27 4 12 9 19 12 17 3 -3 2 -15
-2 -27z m65 26 c0 -3 -4 -8 -10 -11 -5 -3 -10 -1 -10 4 0 6 5 11 10 11 6 0 10
-2 10 -4z m-3300 -10 c0 -2 -9 -6 -20 -9 -11 -3 -20 -1 -20 4 0 5 9 9 20 9 11
0 20 -2 20 -4z m3550 -26 c-6 -11 -15 -18 -20 -15 -6 4 -5 12 3 20 18 21 29
18 17 -5z m-3655 -39 c3 -5 1 -12 -5 -16 -5 -3 -10 1 -10 9 0 18 6 21 15 7z
m-627 -31 c0 -16 -3 -30 -8 -30 -12 0 -23 37 -15 50 12 19 22 10 23 -20z
m1002 20 c0 -5 -4 -10 -10 -10 -5 0 -10 5 -10 10 0 6 5 10 10 10 6 0 10 -4 10
-10z m76 -5 c-10 -8 -23 -12 -29 -8 -11 7 12 23 33 23 12 -1 11 -4 -4 -15z
m-1018 -17 c-5 -32 -28 -35 -28 -4 0 17 5 26 16 26 10 0 14 -7 12 -22z m3587
3 c-3 -6 -13 -11 -21 -11 -8 0 -14 -4 -14 -10 0 -5 -4 -10 -10 -10 -21 0 -9
20 15 26 14 3 25 11 25 17 0 6 3 8 6 4 3 -3 3 -10 -1 -16z m-2825 -31 c0 -5
-4 -10 -10 -10 -5 0 -10 5 -10 10 0 6 5 10 10 10 6 0 10 -4 10 -10z m-360 -10
c0 -5 -2 -10 -4 -10 -3 0 -8 5 -11 10 -3 6 -1 10 4 10 6 0 11 -4 11 -10z
m3520 0 c0 -5 -4 -10 -10 -10 -5 0 -10 5 -10 10 0 6 5 10 10 10 6 0 10 -4 10
-10z m-3380 -10 c0 -5 -5 -10 -11 -10 -5 0 -7 5 -4 10 3 6 8 10 11 10 2 0 4
-4 4 -10z m3020 6 c0 -2 -7 -9 -15 -16 -12 -10 -15 -10 -15 4 0 9 7 16 15 16
8 0 15 -2 15 -4z m83 -16 c6 -23 -7 -34 -28 -26 -10 4 -15 -1 -15 -15 0 -11
-4 -18 -9 -15 -4 3 -6 17 -4 31 3 13 9 23 13 20 4 -3 10 2 14 10 8 21 23 19
29 -5z m-3240 -28 c-4 -17 -2 -21 10 -16 20 7 32 -13 17 -32 -11 -12 -16 -11
-36 11 -13 14 -28 34 -34 45 -9 17 -7 19 19 17 26 -2 29 -5 24 -25z m3551 1
c5 -12 1 -14 -16 -9 -13 3 -27 6 -32 6 -5 0 -3 6 4 14 13 17 36 11 44 -11z
m-104 2 c-7 -9 -15 -13 -17 -11 -7 7 7 26 19 26 6 0 6 -6 -2 -15z m154 -9 c-6
-16 -24 -23 -24 -8 0 10 22 33 27 28 2 -2 1 -11 -3 -20z m-3444 5 c0 -17 -12
-41 -21 -41 -10 0 -12 33 -2 43 9 10 23 9 23 -2z m3107 -18 c4 -10 -26 -27
-34 -20 -2 2 -1 12 3 21 7 18 25 17 31 -1z m-3377 -19 c0 -8 -5 -12 -10 -9 -6
4 -8 11 -5 16 9 14 15 11 15 -7z m3575 6 c3 -5 1 -10 -4 -10 -6 0 -11 5 -11
10 0 6 2 10 4 10 3 0 8 -4 11 -10z m44 -3 c-8 -7 -18 -21 -22 -31 -10 -27 -21
-12 -13 19 4 17 13 25 29 25 19 -1 20 -2 6 -13z m-3384 -17 c16 -17 16 -20 3
-15 -9 4 -19 13 -22 21 -7 19 -2 18 19 -6z m3260 -14 c20 5 25 1 31 -20 3 -15
13 -30 21 -35 10 -5 13 -15 8 -30 -8 -25 -25 -28 -25 -3 0 26 -12 40 -43 47
-22 6 -26 4 -21 -9 4 -11 1 -16 -10 -16 -9 0 -16 5 -16 10 0 6 -7 10 -15 10
-8 0 -15 5 -15 11 0 6 9 9 19 6 15 -3 21 2 26 27 5 21 9 26 12 13 3 -12 11
-15 28 -11z m-3695 4 c0 -5 -8 -10 -17 -10 -15 0 -16 2 -3 10 19 12 20 12 20
0z m587 4 c-3 -3 -12 -4 -19 -1 -8 3 -5 6 6 6 11 1 17 -2 13 -5z m-67 -9 c0
-8 -39 -21 -80 -29 -29 -5 -26 -2 15 13 55 21 65 24 65 16z m-595 -30 c-31
-25 -45 -31 -45 -17 0 8 50 40 65 41 6 0 -3 -11 -20 -24z m403 17 c7 -5 10
-16 6 -26 -4 -10 -2 -21 3 -25 6 -3 -1 -17 -16 -32 -21 -20 -32 -24 -49 -18
-14 5 -21 15 -18 26 11 48 20 63 38 63 10 0 16 5 13 10 -7 12 5 13 23 2z m462
-12 c0 -5 -4 -10 -10 -10 -5 0 -10 5 -10 10 0 6 5 10 10 10 6 0 10 -4 10 -10z
m-400 -10 c0 -5 -7 -7 -15 -4 -8 4 -15 8 -15 10 0 2 7 4 15 4 8 0 15 -4 15
-10z m3445 -51 c-8 -12 -35 -12 -35 0 0 11 22 20 33 14 4 -2 5 -9 2 -14z
m-175 7 c0 -2 -3 -11 -6 -20 -9 -23 -24 -20 -24 4 0 11 7 20 15 20 8 0 15 -2
15 -4z m-3300 -21 c0 -8 -7 -15 -15 -15 -16 0 -20 12 -8 23 11 12 23 8 23 -8z
m3459 -7 c8 3 12 -1 9 -9 -3 -8 -17 -15 -33 -17 -22 -3 -27 0 -21 13 3 9 6 22
6 28 1 7 6 5 13 -4 7 -9 18 -14 26 -11z m187 -25 c-7 -7 -36 23 -36 38 0 7 9
3 21 -10 12 -12 19 -25 15 -28z m-136 7 c0 -10 -4 -22 -10 -25 -6 -4 -10 7
-10 25 0 18 4 29 10 25 6 -3 10 -15 10 -25z m-110 -21 c0 -20 -81 -75 -93 -62
-10 9 25 32 48 33 l20 1 -20 11 c-19 12 -19 12 5 19 37 10 40 10 40 -2z
m-3850 -3 c0 -2 -8 -10 -17 -17 -16 -13 -17 -12 -4 4 13 16 21 21 21 13z m267
-2 c-3 -3 -12 -4 -19 -1 -8 3 -5 6 6 6 11 1 17 -2 13 -5z m3953 -10 c0 -8 -4
-12 -10 -9 -5 3 -10 10 -10 16 0 5 5 9 10 9 6 0 10 -7 10 -16z m-62 -10 c23
-7 12 -21 -13 -16 -14 2 -31 -1 -38 -7 -16 -13 -27 -5 -27 20 0 15 6 18 33 13
17 -3 38 -7 45 -10z m-4253 -5 c4 -6 5 -12 2 -15 -7 -7 -37 7 -37 17 0 13 27
11 35 -2z m345 -9 c12 -8 11 -10 -7 -10 -13 0 -23 5 -23 10 0 13 11 13 30 0z
m3800 -9 c0 -6 -4 -13 -10 -16 -5 -3 -10 1 -10 9 0 9 5 16 10 16 6 0 10 -4 10
-9z m176 -7 c-3 -9 -6 -22 -6 -30 0 -8 -6 -11 -15 -8 -18 7 -19 20 -2 39 16
19 31 19 23 -1z m-373 -39 c-3 -9 0 -22 6 -29 14 -17 0 -29 -23 -20 -18 7 -20
27 -5 55 11 22 31 16 22 -6z m325 5 c17 -14 21 -24 14 -35 -7 -14 -11 -13 -25
9 -12 18 -22 23 -35 19 -15 -6 -15 -5 -3 10 17 21 21 21 49 -3z m106 -21 c-27
-11 -34 -10 -34 0 0 11 31 20 44 13 5 -3 1 -9 -10 -13z m-3804 7 c0 -3 -4 -8
-10 -11 -5 -3 -10 -1 -10 4 0 6 5 11 10 11 6 0 10 -2 10 -4z m3213 -72 c-8
-21 -23 -17 -23 6 0 13 5 18 14 14 8 -3 12 -12 9 -20z m37 1 c0 -8 -4 -15 -10
-15 -5 0 -10 7 -10 15 0 8 5 15 10 15 6 0 10 -7 10 -15z m500 5 c0 -5 -4 -10
-9 -10 -6 0 -13 5 -16 10 -3 6 1 10 9 10 9 0 16 -4 16 -10z m90 -15 c0 -8 -4
-15 -9 -15 -13 0 -22 16 -14 24 11 11 23 6 23 -9z m-4440 -5 c0 -5 -4 -10 -10
-10 -5 0 -10 5 -10 10 0 6 5 10 10 10 6 0 10 -4 10 -10z m710 0 c0 -5 -7 -10
-16 -10 -8 0 -12 5 -9 10 3 6 10 10 16 10 5 0 9 -4 9 -10z m-230 -10 c0 -5 -4
-10 -10 -10 -5 0 -10 5 -10 10 0 6 5 10 10 10 6 0 10 -4 10 -10z m70 -24 c-14
-14 -22 -2 -14 18 5 14 9 15 15 4 4 -7 4 -17 -1 -22z m100 30 c0 -11 -19 -15
-25 -6 -3 5 1 10 9 10 9 0 16 -2 16 -4z m3194 -43 c-9 -39 -20 -48 -39 -33 -8
7 -18 10 -22 6 -4 -3 3 -13 15 -22 24 -17 20 -40 -9 -49 -11 -4 -17 -10 -14
-15 3 -5 -1 -10 -7 -13 -10 -3 -10 -7 1 -20 7 -10 9 -17 3 -17 -6 0 -12 6 -15
13 -3 7 -9 2 -15 -13 -6 -14 -19 -33 -30 -42 -19 -15 -21 -15 -27 -1 -4 13 -8
14 -17 5 -20 -20 -28 -13 -26 21 3 30 1 32 -24 29 -30 -4 -37 14 -15 37 10 11
8 12 -8 3 -16 -8 -26 -6 -45 10 -23 18 -24 19 -4 15 17 -3 20 -1 17 14 -6 21
42 73 58 64 13 -9 -8 -35 -27 -35 -8 0 -14 -5 -14 -11 0 -7 10 -9 25 -7 19 4
25 1 25 -13 0 -23 7 -24 26 -4 10 10 13 23 8 37 -6 20 -5 21 10 9 9 -7 16 -9
16 -4 0 5 13 9 29 8 20 -1 38 7 58 26 15 15 38 28 51 28 19 1 22 -3 16 -26z
m-3354 3 c0 -12 -13 -36 -19 -36 -4 0 -7 9 -8 20 -1 11 4 20 13 20 8 0 14 -2
14 -4z m3800 -6 c0 -5 -7 -7 -15 -4 -8 4 -15 8 -15 10 0 2 7 4 15 4 8 0 15 -4
15 -10z m-424 -36 c-9 -8 -16 -11 -16 -4 0 15 24 40 28 29 2 -5 -4 -16 -12
-25z m379 26 c3 -5 -1 -10 -9 -10 -8 0 -18 5 -21 10 -3 6 1 10 9 10 8 0 18 -4
21 -10z m135 0 c0 -5 -7 -10 -15 -10 -8 0 -15 5 -15 10 0 6 7 10 15 10 8 0 15
-4 15 -10z m-453 -7 c-4 -3 -1 -13 7 -22 13 -14 13 -19 0 -35 -8 -11 -14 -14
-14 -8 0 7 -7 12 -16 12 -11 0 -14 5 -10 16 3 9 6 22 6 30 0 8 8 14 17 14 9 0
13 -3 10 -7z m-2900 -25 c-3 -8 -6 -5 -6 6 -1 11 2 17 5 13 3 -3 4 -12 1 -19z
m-315 -10 c-7 -7 -12 -8 -12 -2 0 14 12 26 19 19 2 -3 -1 -11 -7 -17z m-92
-13 c0 -8 -4 -15 -10 -15 -5 0 -10 7 -10 15 0 8 5 15 10 15 6 0 10 -7 10 -15z
m3347 -22 c-3 -10 -5 -4 -5 12 0 17 2 24 5 18 2 -7 2 -21 0 -30z m-3701 -10
c-11 -11 -17 4 -9 23 7 18 8 18 11 1 2 -10 1 -21 -2 -24z m398 21 c19 -19 20
-23 4 -20 -19 3 -38 16 -38 27 0 14 17 11 34 -7z m-452 -21 c9 -12 9 -16 -3
-24 -22 -13 -28 -11 -22 10 3 14 0 19 -13 18 -9 -1 -19 3 -21 9 -6 16 44 5 59
-13z m815 5 c-3 -8 -6 -5 -6 6 -1 11 2 17 5 13 3 -3 4 -12 1 -19z m-707 -8
c-19 -12 -30 -12 -30 -1 0 10 31 20 40 14 2 -2 -2 -8 -10 -13z m-283 -32 c-3
-8 -6 -5 -6 6 -1 11 2 17 5 13 3 -3 4 -12 1 -19z m513 12 c0 -5 -4 -10 -10
-10 -5 0 -10 5 -10 10 0 6 5 10 10 10 6 0 10 -4 10 -10z m-267 -20 c-5 -19
-23 -29 -23 -12 0 7 20 32 26 32 1 0 0 -9 -3 -20z m51 14 c20 -8 11 -24 -15
-24 -19 0 -25 11 -12 23 8 8 8 8 27 1z m3736 -37 c0 -6 -9 -2 -20 8 -11 10
-20 23 -20 28 0 6 9 2 20 -8 11 -10 20 -23 20 -28z m-3664 20 c8 3 14 1 14 -5
0 -13 -38 -23 -46 -11 -3 5 -2 14 2 21 6 9 9 9 11 1 3 -7 11 -9 19 -6z m-180
-24 c-7 -7 -26 7 -26 19 0 6 6 6 15 -2 9 -7 13 -15 11 -17z m3584 23 c0 -3 -4
-8 -10 -11 -5 -3 -10 -1 -10 4 0 6 5 11 10 11 6 0 10 -2 10 -4z m-3820 -16 c0
-5 -4 -10 -10 -10 -5 0 -10 5 -10 10 0 6 5 10 10 10 6 0 10 -4 10 -10z m120 0
c0 -5 -4 -10 -10 -10 -5 0 -10 5 -10 10 0 6 5 10 10 10 6 0 10 -4 10 -10z
m717 4 c-3 -3 -12 -4 -19 -1 -8 3 -5 6 6 6 11 1 17 -2 13 -5z m2778 -32 c-6
-7 -35 18 -35 31 0 5 9 2 20 -8 11 -10 18 -20 15 -23z m-3098 6 c-3 -8 -6 -5
-6 6 -1 11 2 17 5 13 3 -3 4 -12 1 -19z m293 -47 c0 -18 -3 -22 -9 -12 -6 10
-10 10 -16 1 -13 -22 -34 21 -22 47 10 22 11 22 29 7 10 -10 18 -29 18 -43z
m3350 29 c0 -5 -4 -10 -10 -10 -5 0 -10 5 -10 10 0 6 5 10 10 10 6 0 10 -4 10
-10z m70 0 c0 -5 -4 -10 -10 -10 -5 0 -10 5 -10 10 0 6 5 10 10 10 6 0 10 -4
10 -10z m-3950 -32 c0 -5 -9 -4 -20 2 -11 6 -20 8 -20 5 0 -4 -5 -3 -12 1 -8
5 -6 10 8 14 19 8 44 -5 44 -22z m3280 11 c0 -15 -4 -19 -16 -15 -9 3 -18 6
-20 6 -2 0 -4 7 -4 15 0 8 9 15 20 15 14 0 20 -7 20 -21z m415 11 c3 -5 -3
-10 -14 -10 -11 0 -23 5 -26 10 -3 6 3 10 14 10 11 0 23 -4 26 -10z m-385 -16
c0 -8 -5 -12 -10 -9 -6 4 -8 11 -5 16 9 14 15 11 15 -7z m79 -14 c22 0 7 -35
-17 -38 -16 -3 -22 2 -22 17 0 11 -5 23 -10 26 -6 4 -8 11 -4 16 4 6 13 4 23
-5 10 -9 23 -16 30 -16z m-3342 6 c-5 -16 -27 -19 -27 -3 0 7 7 14 15 14 9 0
14 -5 12 -11z m307 -13 c-12 -55 -16 -63 -30 -63 -8 0 -13 -5 -11 -11 1 -6 -4
-14 -10 -16 -15 -6 -17 13 -3 22 6 3 10 15 10 26 0 10 7 19 15 19 8 0 15 5 15
10 0 6 -7 10 -15 10 -16 0 -20 12 -8 23 3 4 15 7 25 7 15 0 17 -5 12 -27z m82
0 c-10 -10 -19 5 -10 18 6 11 8 11 12 0 2 -7 1 -15 -2 -18z m-239 11 c-3 -3
-12 -4 -19 -1 -8 3 -5 6 6 6 11 1 17 -2 13 -5z m368 -4 c-3 -5 -11 -10 -16
-10 -6 0 -7 5 -4 10 3 6 11 10 16 10 6 0 7 -4 4 -10z m-710 -27 c-33 -23 -60
-12 -34 14 6 6 20 8 31 5 20 -5 20 -6 3 -19z m411 12 c-26 -19 -42 -19 -26 0
7 8 20 15 29 15 13 -1 13 -3 -3 -15z m326 -21 c-17 -17 -21 -24 -9 -20 10 3
17 0 17 -8 0 -9 7 -12 19 -9 15 4 18 0 14 -20 -5 -27 -48 -53 -58 -36 -4 5
-21 7 -40 3 -20 -3 -35 -1 -40 5 -9 16 -25 3 -18 -14 3 -9 -1 -15 -10 -15 -9
0 -24 -3 -34 -7 -15 -5 -15 -3 3 13 22 20 21 44 -2 44 -8 0 -14 -9 -14 -20 0
-11 -5 -20 -10 -20 -6 0 -8 11 -4 25 5 19 2 25 -10 25 -9 0 -16 5 -16 11 0 7
10 9 25 7 13 -3 26 -1 27 3 2 5 22 12 46 15 24 3 62 17 85 29 50 29 66 23 29
-11z m2618 22 c0 -3 -4 -8 -10 -11 -5 -3 -10 -1 -10 4 0 6 5 11 10 11 6 0 10
-2 10 -4z m-3200 -26 c0 -5 -2 -10 -4 -10 -3 0 -8 5 -11 10 -3 6 -1 10 4 10 6
0 11 -4 11 -10z m4067 4 c-3 -3 -12 -4 -19 -1 -8 3 -5 6 6 6 11 1 17 -2 13 -5z
m-4040 -38 c-7 -14 -14 -23 -16 -20 -2 2 -9 -6 -15 -18 -14 -27 -46 -37 -46
-14 0 9 7 16 16 16 10 0 14 7 12 23 -2 16 2 22 15 21 9 -1 17 2 17 7 0 5 6 9
14 9 11 0 12 -5 3 -24z m3153 14 c0 -5 -7 -10 -15 -10 -8 0 -15 5 -15 10 0 6
7 10 15 10 8 0 15 -4 15 -10z m716 -15 c4 -8 0 -22 -7 -31 -12 -14 -14 -14
-20 3 -4 10 -8 24 -8 31 -1 17 28 15 35 -3z m-516 -15 c0 -12 5 -17 14 -14 20
8 28 -12 11 -26 -13 -10 -21 -10 -43 0 -16 7 -22 15 -14 17 6 3 12 13 12 24 0
10 5 19 10 19 6 0 10 -9 10 -20z m380 -10 c0 -5 -4 -10 -9 -10 -6 0 -13 5 -16
10 -3 6 1 10 9 10 9 0 16 -4 16 -10z m-2550 -36 c0 -8 -5 -12 -10 -9 -6 4 -8
11 -5 16 9 14 15 11 15 -7z m2490 -18 c0 -3 -4 -8 -10 -11 -5 -3 -10 -1 -10 4
0 6 5 11 10 11 6 0 10 -2 10 -4z m-96 -22 c3 -8 2 -12 -4 -9 -6 3 -10 10 -10
16 0 14 7 11 14 -7z m-3164 -4 c0 -5 -5 -10 -11 -10 -5 0 -7 5 -4 10 3 6 8 10
11 10 2 0 4 -4 4 -10z m3135 0 c3 -5 1 -10 -4 -10 -6 0 -11 5 -11 10 0 6 2 10
4 10 3 0 8 -4 11 -10z m-3665 -20 c0 -5 -4 -10 -10 -10 -5 0 -10 5 -10 10 0 6
5 10 10 10 6 0 10 -4 10 -10z m3540 -20 c0 -11 -4 -20 -10 -20 -5 0 -10 9 -10
20 0 11 5 20 10 20 6 0 10 -9 10 -20z m-3067 -87 c-7 -2 -19 -2 -25 0 -7 3 -2
5 12 5 14 0 19 -2 13 -5z m2 -33 c3 -5 -3 -10 -15 -10 -12 0 -18 5 -15 10 3 6
10 10 15 10 5 0 12 -4 15 -10z m2930 -29 c3 -5 1 -12 -5 -16 -5 -3 -10 1 -10
9 0 18 6 21 15 7z m135 -15 c0 -3 -4 -8 -10 -11 -5 -3 -10 -1 -10 4 0 6 5 11
10 11 6 0 10 -2 10 -4z m665 -6 c-3 -5 -11 -10 -16 -10 -6 0 -7 5 -4 10 3 6
11 10 16 10 6 0 7 -4 4 -10z m-606 -51 c-25 -16 -32 -9 -13 12 12 13 20 16 22
9 3 -7 -2 -16 -9 -21z m466 -16 c4 -14 2 -23 -4 -23 -6 0 -11 3 -11 8 0 4 -3
18 -6 32 -8 31 11 16 21 -17z m-965 14 c0 -8 -6 -14 -14 -14 -8 0 -12 6 -9 14
3 7 9 13 14 13 5 0 9 -6 9 -13z m580 -3 c0 -2 -7 -4 -15 -4 -8 0 -15 4 -15 10
0 5 7 7 15 4 8 -4 15 -8 15 -10z m-2490 -14 c0 -13 -5 -18 -15 -14 -11 5 -12
9 -2 20 16 18 17 17 17 -6z m2160 1 c0 -12 -20 -25 -27 -18 -7 7 6 27 18 27 5
0 9 -4 9 -9z m659 -12 c24 -9 31 -16 29 -33 -4 -27 -36 -34 -44 -9 -3 10 -10
26 -15 36 -11 20 -11 20 30 6z m-219 -20 c0 -5 -4 -9 -10 -9 -5 0 -10 7 -10
16 0 8 5 12 10 9 6 -3 10 -10 10 -16z m-3240 1 c0 -5 -7 -10 -15 -10 -8 0 -15
5 -15 10 0 6 7 10 15 10 8 0 15 -4 15 -10z m655 -10 c3 -5 2 -10 -4 -10 -5 0
-18 -3 -28 -7 -16 -6 -16 -5 -4 10 15 19 27 22 36 7z m2425 0 c0 -5 -5 -10
-11 -10 -5 0 -7 5 -4 10 3 6 8 10 11 10 2 0 4 -4 4 -10z m-365 -9 c6 -11 -33
-36 -42 -27 -3 3 -3 12 0 21 7 17 33 20 42 6z m298 -6 c-3 -9 -8 -14 -10 -11
-3 3 -2 9 2 15 9 16 15 13 8 -4z m-2964 -21 c3 -16 1 -17 -13 -5 -19 16 -21
34 -3 29 6 -3 14 -13 16 -24z m2931 12 c0 -8 -9 -12 -22 -11 -33 4 -35 5 -13
15 29 12 35 12 35 -4z m107 -12 c-2 -3 -14 -6 -26 -9 -25 -5 -29 12 -3 18 18
4 36 -2 29 -9z m38 6 c3 -5 1 -10 -4 -10 -6 0 -11 5 -11 10 0 6 2 10 4 10 3 0
8 -4 11 -10z m-2525 -14 c0 -7 -7 -19 -15 -26 -8 -7 -15 -9 -15 -6 0 4 -7 0
-16 -8 -16 -17 -34 -21 -34 -8 0 8 62 61 73 62 4 0 7 -6 7 -14z m2570 -1 c0
-8 -4 -15 -10 -15 -5 0 -10 7 -10 15 0 8 5 15 10 15 6 0 10 -7 10 -15z m-2518
-12 c-6 -3 -10 -9 -6 -14 3 -5 -3 -9 -12 -9 -16 0 -16 2 1 20 10 11 21 17 24
14 3 -4 0 -9 -7 -11z m2287 -22 c-3 -8 -10 -8 -23 2 -12 8 -16 19 -11 26 6 10
11 10 22 -2 9 -8 14 -20 12 -26z m-2134 2 c28 -31 32 -45 10 -37 -8 4 -15 12
-15 20 0 8 -7 11 -17 8 -15 -5 -16 -4 -3 5 8 6 11 11 6 11 -5 0 -18 -7 -28
-17 -17 -15 -18 -15 -18 5 0 18 11 29 32 31 4 1 19 -11 33 -26z m1825 7 c0 -5
-2 -10 -4 -10 -3 0 -8 5 -11 10 -3 6 -1 10 4 10 6 0 11 -4 11 -10z m465 0 c9
-15 -37 -60 -60 -59 -17 1 -17 2 -2 6 12 3 15 11 11 29 -5 19 -3 23 10 18 9
-3 16 -1 16 5 0 14 17 14 25 1z m-65 -10 c0 -5 -2 -10 -4 -10 -3 0 -8 5 -11
10 -3 6 -1 10 4 10 6 0 11 -4 11 -10z m310 -24 c-5 -5 -15 -3 -24 6 -20 20 -9
30 15 15 11 -7 15 -15 9 -21z m310 14 c0 -5 -5 -10 -11 -10 -5 0 -7 5 -4 10 3
6 8 10 11 10 2 0 4 -4 4 -10z m-3020 -10 c0 -5 -4 -10 -10 -10 -5 0 -10 5 -10
10 0 6 5 10 10 10 6 0 10 -4 10 -10z m1940 -11 c0 -5 -4 -9 -10 -9 -5 0 -10 7
-10 16 0 8 5 12 10 9 6 -3 10 -10 10 -16z m-1970 1 c0 -5 -7 -10 -16 -10 -8 0
-12 5 -9 10 3 6 10 10 16 10 5 0 9 -4 9 -10z m2112 -6 c9 -9 -3 -44 -13 -38
-5 3 -7 10 -4 15 4 5 -3 9 -15 9 -12 0 -18 5 -15 10 7 11 38 14 47 4z m52 -30
c9 -24 7 -28 -9 -14 -17 14 -20 30 -6 30 5 0 12 -7 15 -16z m946 11 c0 -13
-31 -65 -39 -65 -16 0 -45 40 -35 49 14 14 74 26 74 16z m-805 -15 c-3 -5 -11
-10 -16 -10 -6 0 -7 5 -4 10 3 6 11 10 16 10 6 0 7 -4 4 -10z m-2090 -10 c-3
-5 -10 -10 -16 -10 -5 0 -9 5 -9 10 0 6 7 10 16 10 8 0 12 -4 9 -10z m2313
-11 c-2 -6 -8 -10 -13 -10 -5 0 -11 4 -13 10 -2 6 4 11 13 11 9 0 15 -5 13
-11z m317 -9 c-3 -5 -11 -10 -16 -10 -6 0 -7 5 -4 10 3 6 11 10 16 10 6 0 7
-4 4 -10z m31 -25 c-4 -15 -13 -25 -24 -25 -16 1 -16 1 1 11 9 5 17 20 17 31
0 12 3 19 6 15 4 -3 4 -18 0 -32z m44 11 c0 -8 6 -16 12 -18 8 -3 1 -16 -19
-36 -41 -42 -50 -40 -24 3 11 19 18 42 15 50 -4 8 -1 15 5 15 6 0 11 -6 11
-14z m-865 -16 c-3 -5 -12 -10 -18 -10 -7 0 -6 4 3 10 19 12 23 12 15 0z m485
-4 c0 -22 -13 -26 -33 -11 -18 13 -18 13 0 18 31 8 33 7 33 -7z m-600 -22 c0
-8 -5 -12 -10 -9 -6 4 -8 11 -5 16 9 14 15 11 15 -7z m626 -41 c-25 -23 -26
-23 -26 -3 0 11 4 20 9 20 5 0 13 10 17 22 6 20 7 20 16 3 8 -13 5 -23 -16
-42z m-366 21 c0 -8 -4 -12 -10 -9 -5 3 -10 10 -10 16 0 5 5 9 10 9 6 0 10 -7
10 -16z m290 6 c-20 -13 -33 -13 -25 0 3 6 14 10 23 10 15 0 15 -2 2 -10z
m-333 -15 c0 -8 -4 -15 -8 -15 -11 0 -20 16 -12 24 11 11 20 7 20 -9z m898 -6
c-10 -15 -25 -10 -19 6 4 8 10 12 15 9 5 -3 7 -10 4 -15z m-614 -11 c11 -21
11 -22 -4 -9 -10 7 -17 17 -17 22 0 15 9 10 21 -13z m-313 -43 c0 -29 -17 -44
-28 -25 -10 17 -1 50 15 50 7 0 13 -11 13 -25z m49 9 c-3 -3 -12 -4 -19 -1 -8
3 -5 6 6 6 11 1 17 -2 13 -5z m-127 -19 c0 -19 -11 -24 -43 -18 -46 9 -32 25
26 30 9 1 17 -4 17 -12z m993 4 c-9 -9 -9 -16 0 -30 6 -10 8 -21 5 -25 -10 -9
-33 18 -32 36 3 28 4 30 21 30 13 0 14 -3 6 -11z m-68 -30 c8 -23 1 -34 -14
-24 -13 8 -15 45 -2 45 5 0 13 -9 16 -21z m-895 1 c0 -5 -4 -10 -10 -10 -5 0
-10 5 -10 10 0 6 5 10 10 10 6 0 10 -4 10 -10z m120 -11 c0 -5 -4 -9 -10 -9
-5 0 -10 7 -10 16 0 8 5 12 10 9 6 -3 10 -10 10 -16z m545 0 c-8 -12 -35 -12
-35 0 0 11 22 20 33 14 4 -2 5 -9 2 -14z m-3435 -19 c0 -5 -5 -10 -11 -10 -5
0 -7 5 -4 10 3 6 8 10 11 10 2 0 4 -4 4 -10z m2750 0 c0 -5 -12 -10 -27 -9
-25 0 -26 1 -8 9 27 12 35 12 35 0z m540 0 c0 -5 -4 -10 -10 -10 -5 0 -10 5
-10 10 0 6 5 10 10 10 6 0 10 -4 10 -10z m-315 -60 c3 -5 -1 -10 -9 -10 -9 0
-16 5 -16 10 0 6 4 10 9 10 6 0 13 -4 16 -10z m679 -32 c-1 -19 4 -28 14 -28
12 0 13 -3 5 -11 -8 -8 -19 -2 -42 22 -38 40 -39 51 -3 47 22 -2 27 -8 26 -30z
m-864 4 c0 -4 -5 -13 -11 -19 -8 -8 -5 -13 12 -18 22 -7 22 -8 4 -21 -10 -8
-13 -14 -6 -14 7 0 9 -4 6 -10 -3 -5 0 -10 8 -10 7 0 19 12 25 26 15 32 32 22
32 -18 0 -22 4 -29 14 -25 19 8 28 -3 16 -18 -8 -9 -6 -14 5 -19 8 -3 15 -13
15 -21 0 -9 -4 -14 -9 -10 -5 3 -12 1 -16 -5 -3 -5 -15 -10 -26 -10 -11 0 -23
-10 -29 -24 -10 -26 -30 -44 -30 -26 0 6 -5 8 -10 5 -6 -3 -19 -3 -31 0 -15 5
-18 12 -14 28 4 12 3 17 -2 11 -15 -19 -57 -44 -75 -44 -15 0 -18 7 -16 39 2
24 7 36 13 32 6 -5 22 -11 37 -15 23 -5 25 -3 21 14 -5 18 -2 19 18 12 13 -5
33 -6 43 -2 18 6 17 10 -17 42 -36 36 -49 77 -24 79 10 0 10 2 0 6 -22 8 -15
35 7 28 11 -4 20 -2 20 4 0 6 5 11 10 11 6 0 10 -4 10 -8z m795 -34 c15 2 25
0 25 -7 0 -16 -57 -14 -63 3 -3 8 -3 17 1 21 4 4 8 0 10 -8 2 -9 11 -12 27 -9z
m-1025 2 c0 -5 -4 -10 -10 -10 -5 0 -10 5 -10 10 0 6 5 10 10 10 6 0 10 -4 10
-10z m590 6 c0 -3 -4 -8 -10 -11 -5 -3 -10 -1 -10 4 0 6 5 11 10 11 6 0 10 -2
10 -4z m-590 -36 c0 -5 -4 -10 -10 -10 -5 0 -10 5 -10 10 0 6 5 10 10 10 6 0
10 -4 10 -10z m940 0 c0 -5 -5 -10 -11 -10 -5 0 -7 5 -4 10 3 6 8 10 11 10 2
0 4 -4 4 -10z m-73 -6 c-3 -3 -12 -4 -19 -1 -8 3 -5 6 6 6 11 1 17 -2 13 -5z
m-318 -31 c2 -2 -5 -3 -17 -3 -14 0 -22 6 -22 16 0 14 3 15 18 3 9 -7 19 -15
21 -16z m531 17 c0 -5 -5 -10 -11 -10 -5 0 -7 5 -4 10 3 6 8 10 11 10 2 0 4
-4 4 -10z m-113 -14 c-3 -8 1 -17 9 -20 22 -8 17 -26 -9 -26 -12 0 -35 14 -50
30 l-29 30 42 0 c32 0 41 -3 37 -14z m60 -17 c22 -8 24 -12 13 -19 -21 -13
-24 -13 -38 10 -14 23 -13 24 25 9z m-923 -24 c-4 -8 -12 -15 -20 -15 -20 0
-17 18 4 23 9 3 18 5 19 6 1 0 0 -6 -3 -14z m306 -5 c-6 -11 -15 -20 -21 -20
-6 0 -6 7 1 20 6 11 15 20 21 20 6 0 6 -7 -1 -20z m-365 1 c3 -5 1 -12 -5 -16
-5 -3 -10 1 -10 9 0 18 6 21 15 7z m829 -12 c-8 -14 -24 -10 -24 6 0 9 6 12
15 9 8 -4 12 -10 9 -15z m-98 2 c11 9 15 8 20 -5 3 -9 12 -16 19 -16 19 0 30
-40 15 -54 -10 -8 -11 -8 -6 1 5 10 -31 30 -44 24 -2 -1 -8 7 -12 19 -7 18
-11 20 -23 10 -18 -15 -20 1 -3 18 9 9 14 9 16 2 3 -8 8 -7 18 1z m-936 -27
c0 -8 -4 -12 -10 -9 -5 3 -10 10 -10 16 0 5 5 9 10 9 6 0 10 -7 10 -16z m1184
8 c9 -15 -5 -50 -22 -57 -21 -8 -72 -16 -54 -9 9 4 11 17 6 40 -6 33 -6 34 29
34 20 0 38 -4 41 -8z m-944 -6 c0 -3 -4 -8 -10 -11 -5 -3 -10 -1 -10 4 0 6 5
11 10 11 6 0 10 -2 10 -4z m-150 -26 c0 -5 -2 -10 -4 -10 -3 0 -8 5 -11 10 -3
6 -1 10 4 10 6 0 11 -4 11 -10z m870 -26 c0 -8 -5 -12 -10 -9 -6 4 -8 11 -5
16 9 14 15 11 15 -7z m-963 -10 c-3 -3 -12 -4 -19 -1 -8 3 -5 6 6 6 11 1 17
-2 13 -5z m1068 -4 c3 -5 -1 -10 -9 -10 -9 0 -16 5 -16 10 0 6 4 10 9 10 6 0
13 -4 16 -10z m-905 -21 c0 -6 -4 -7 -10 -4 -5 3 -10 11 -10 16 0 6 5 7 10 4
6 -3 10 -11 10 -16z m1130 13 c0 -13 -12 -22 -22 -16 -10 6 -1 24 13 24 5 0 9
-4 9 -8z m-1020 -12 c0 -5 -4 -10 -10 -10 -5 0 -10 5 -10 10 0 6 5 10 10 10 6
0 10 -4 10 -10z m-280 -10 c0 -5 -7 -10 -16 -10 -8 0 -12 5 -9 10 3 6 10 10
16 10 5 0 9 -4 9 -10z m1250 0 c11 -6 17 -16 14 -24 -3 -8 4 -16 18 -20 40
-10 76 -7 82 9 7 18 26 20 26 2 0 -21 -35 -44 -79 -51 -39 -6 -43 -5 -37 11 6
17 5 17 -8 0 -14 -18 -33 -7 -21 13 7 11 -12 51 -29 62 -17 12 12 10 34 -2z
m-3920 -17 c-1 -18 -18 -35 -24 -24 -4 6 -2 11 4 11 6 0 8 5 5 10 -3 6 -1 10
4 10 6 0 11 -3 11 -7z m815 -21 c-3 -3 -11 0 -18 7 -9 10 -8 11 6 5 10 -3 15
-9 12 -12z m2775 14 c0 -3 -4 -8 -10 -11 -5 -3 -10 -1 -10 4 0 6 5 11 10 11 6
0 10 -2 10 -4z m-705 -26 c3 -5 1 -10 -4 -10 -6 0 -11 5 -11 10 0 6 2 10 4 10
3 0 8 -4 11 -10z m-3015 -30 c0 -5 -5 -10 -11 -10 -5 0 -7 5 -4 10 3 6 8 10
11 10 2 0 4 -4 4 -10z m3855 0 c3 -5 2 -10 -4 -10 -5 0 -13 5 -16 10 -3 6 -2
10 4 10 5 0 13 -4 16 -10z m-2921 -15 c-7 -17 -20 -20 -28 -6 -4 5 0 12 6 14
23 9 28 7 22 -8z m2176 5 c0 -5 -2 -10 -4 -10 -3 0 -8 5 -11 10 -3 6 -1 10 4
10 6 0 11 -4 11 -10z m146 -1 c3 -6 0 -15 -7 -20 -10 -6 -11 -9 -1 -9 6 0 12
-4 12 -10 0 -16 -22 -12 -35 7 -7 9 -11 23 -8 30 6 16 29 17 39 2z m172 -1
c-2 -6 -15 -18 -29 -27 -15 -9 -20 -10 -12 -2 6 8 9 20 6 27 -3 9 2 14 17 14
12 0 20 -5 18 -12z m-278 -2 c0 -3 -4 -8 -10 -11 -5 -3 -10 -1 -10 4 0 6 5 11
10 11 6 0 10 -2 10 -4z m208 -25 c3 -8 -1 -12 -9 -9 -7 2 -15 10 -17 17 -3 8
1 12 9 9 7 -2 15 -10 17 -17z m-2438 -16 c0 -21 -19 -28 -26 -11 -3 9 -10 16
-16 16 -5 0 -6 -5 -2 -12 4 -7 3 -8 -4 -4 -17 10 -15 24 6 28 24 6 42 -2 42
-17z m2700 15 c0 -5 -4 -10 -10 -10 -5 0 -10 5 -10 10 0 6 5 10 10 10 6 0 10
-4 10 -10z m505 0 c-3 -5 -1 -10 4 -10 6 0 11 -4 11 -10 0 -5 -9 -10 -20 -10
-13 0 -20 7 -20 20 0 11 7 20 16 20 8 0 12 -4 9 -10z m-907 -27 c20 -23 26
-26 42 -15 13 8 20 8 20 2 0 -6 -8 -13 -17 -17 -34 -12 -44 -25 -32 -39 6 -8
8 -14 4 -14 -5 0 0 -9 10 -20 10 -11 22 -17 27 -14 6 4 5 -3 -1 -15 -7 -12 -8
-21 -4 -20 25 4 24 -4 -2 -16 l-30 -13 33 2 c17 2 32 -1 32 -5 0 -5 -9 -9 -19
-9 -11 0 -26 -9 -34 -21 -15 -20 -15 -20 -58 20 -43 40 -50 64 -10 39 32 -19
50 4 22 28 -11 10 -21 28 -21 39 0 16 -2 17 -10 5 -11 -18 -70 -21 -87 -4 -9
9 -9 16 3 30 11 14 17 15 20 7 8 -19 24 -16 24 3 0 9 10 25 22 35 11 11 16 19
9 19 -7 0 -9 5 -6 10 11 18 39 10 63 -17z m487 7 c7 -11 -18 -40 -34 -40 -14
0 -14 6 1 30 14 22 24 25 33 10z m142 -6 c-3 -3 -12 -4 -19 -1 -8 3 -5 6 6 6
11 1 17 -2 13 -5z m142 -21 c19 -5 37 -15 39 -22 3 -10 -2 -12 -17 -8 -11 3
-24 1 -27 -4 -3 -6 -11 -5 -20 2 -12 9 -14 8 -12 -9 2 -11 -1 -21 -7 -22 -5 0
-11 12 -12 26 -1 15 -4 33 -7 40 -6 17 5 26 18 15 6 -5 26 -13 45 -18z m-3059
-19 c0 -17 -22 -14 -28 4 -2 7 3 12 12 12 9 0 16 -7 16 -16z m3204 -15 c-3 -5
-10 -7 -15 -3 -5 3 -7 10 -3 15 3 5 10 7 15 3 5 -3 7 -10 3 -15z m-450 -20
c-10 -16 -24 -9 -24 12 0 18 2 19 15 9 8 -7 12 -16 9 -21z m396 21 c0 -5 -5
-10 -11 -10 -5 0 -7 5 -4 10 3 6 8 10 11 10 2 0 4 -4 4 -10z m-3805 -10 c3 -5
1 -10 -4 -10 -6 0 -11 5 -11 10 0 6 2 10 4 10 3 0 8 -4 11 -10z m591 -15 c-9
-14 -12 -25 -6 -25 5 0 10 -7 10 -15 0 -9 7 -27 16 -40 20 -31 11 -49 -17 -32
-12 7 -18 19 -15 31 3 10 0 30 -5 43 -12 32 -3 63 18 63 14 0 13 -3 -1 -25z
m2912 -11 c-3 -14 -5 -12 -10 9 -3 19 -2 25 4 19 6 -6 8 -18 6 -28z m402 26
c0 -5 -7 -10 -15 -10 -8 0 -15 5 -15 10 0 6 7 10 15 10 8 0 15 -4 15 -10z
m-429 -29 c-10 -6 -9 -11 3 -24 10 -9 13 -23 9 -34 -6 -16 -5 -16 10 -4 15 12
17 11 17 -4 0 -14 -6 -16 -30 -11 -25 5 -30 2 -30 -14 0 -12 7 -20 16 -20 9 0
14 -6 12 -12 -3 -7 -11 -13 -19 -13 -8 0 -13 -8 -11 -18 2 -9 -2 -17 -8 -17
-5 0 -10 6 -10 14 0 7 -10 17 -22 21 -18 6 -20 8 -7 12 9 2 19 16 22 30 4 23
2 25 -24 19 -15 -3 -31 -1 -34 4 -3 6 1 10 10 10 9 0 18 12 22 31 5 26 10 30
29 26 13 -2 29 2 35 10 7 7 14 11 18 8 3 -3 0 -10 -8 -14z m163 3 c9 -23 -26
-64 -46 -53 -11 6 -20 4 -28 -6 -7 -8 -16 -12 -21 -9 -20 12 -7 24 31 30 36 6
39 9 34 30 -7 28 20 35 30 8z m-2919 -14 c-3 -5 -10 -10 -16 -10 -5 0 -9 5 -9
10 0 6 7 10 16 10 8 0 12 -4 9 -10z m2655 -10 c14 -4 19 -8 12 -9 -7 -1 -11
-5 -7 -10 3 -5 -8 -9 -25 -9 -32 1 -45 11 -35 28 7 11 19 11 55 0z m-2810 -10
c0 -5 -4 -10 -10 -10 -5 0 -10 5 -10 10 0 6 5 10 10 10 6 0 10 -4 10 -10z
m-583 -26 c-3 -3 -12 -4 -19 -1 -8 3 -5 6 6 6 11 1 17 -2 13 -5z m683 -24
c-16 -10 -30 -4 -30 11 0 6 5 7 10 4 6 -3 10 -1 10 6 0 10 3 10 12 1 10 -10
10 -15 -2 -22z m2420 9 c0 -4 -7 -6 -15 -3 -8 4 -15 10 -15 15 0 4 7 6 15 3 8
-4 15 -10 15 -15z m246 -11 c4 -6 2 -14 -4 -16 -17 -5 -15 -42 3 -42 14 0 20
-14 15 -35 -1 -5 -3 -16 -3 -23 0 -8 -8 -10 -20 -6 -10 3 -34 6 -53 6 -19 0
-34 4 -34 9 0 5 5 9 10 9 6 0 10 6 10 14 0 8 3 16 8 18 4 2 15 20 24 41 18 38
31 46 44 25z m254 2 c0 -5 -4 -10 -10 -10 -5 0 -10 5 -10 10 0 6 5 10 10 10 6
0 10 -4 10 -10z m-746 -16 c18 -18 18 -17 10 -38 -3 -9 -11 -13 -16 -10 -6 4
-15 0 -20 -7 -8 -11 -9 -11 -5 1 3 9 -1 24 -9 35 -8 10 -14 22 -14 27 0 14 38
9 54 -8z m-64 -24 c0 -5 -2 -10 -4 -10 -3 0 -8 5 -11 10 -3 6 -1 10 4 10 6 0
11 -4 11 -10z m398 -8 c2 -7 -7 -12 -22 -12 -15 0 -26 6 -26 13 0 17 42 15 48
-1z m192 8 c0 -5 -9 -10 -20 -10 -11 0 -20 5 -20 10 0 6 9 10 20 10 11 0 20
-4 20 -10z m300 0 c8 -5 12 -12 8 -15 -8 -8 -58 5 -58 16 0 12 31 11 50 -1z
m-628 -25 c3 -15 1 -25 -6 -25 -6 0 -11 11 -11 25 0 14 3 25 6 25 4 0 9 -11
11 -25z m64 13 c9 -9 -31 -28 -42 -20 -18 14 -12 28 12 27 13 -1 27 -4 30 -7z
m-3556 -18 c0 -5 -5 -10 -11 -10 -5 0 -7 5 -4 10 3 6 8 10 11 10 2 0 4 -4 4
-10z m4055 -26 c-2 -28 -19 -44 -50 -44 -20 1 -20 1 -1 15 14 11 16 15 5 15
-12 0 -12 2 1 10 8 5 11 10 5 10 -13 0 17 20 30 20 6 0 10 -12 10 -26z m-430
6 c3 -6 -1 -13 -10 -16 -19 -8 -30 0 -20 15 8 14 22 14 30 1z m216 -23 c-1
-12 -15 -9 -19 4 -3 6 1 10 8 8 6 -3 11 -8 11 -12z m-25 -94 c-11 -11 -19 6
-11 24 8 17 8 17 12 0 3 -10 2 -21 -1 -24z m237 17 c22 -27 48 -90 36 -90 -5
0 -9 5 -9 11 0 7 -10 9 -25 7 -28 -6 -48 12 -39 35 3 8 0 18 -6 22 -8 5 -8 11
1 21 15 19 21 18 42 -6z m57 10 c0 -5 -4 -10 -10 -10 -5 0 -10 5 -10 10 0 6 5
10 10 10 6 0 10 -4 10 -10z m-345 -30 c-3 -5 -11 -10 -16 -10 -6 0 -7 5 -4 10
3 6 11 10 16 10 6 0 7 -4 4 -10z m-3156 -31 c30 -30 41 -59 21 -59 -5 0 -15
10 -21 23 -6 12 -23 32 -38 44 -20 17 -22 22 -9 23 9 0 30 -14 47 -31z m2958
-45 c-3 -3 -12 -4 -19 -1 -8 3 -5 6 6 6 11 1 17 -2 13 -5z m-3107 -33 c-11
-21 -40 -29 -40 -12 0 11 42 43 48 37 2 -3 -1 -14 -8 -25z m2594 -45 c-15 -31
-30 -56 -34 -56 -4 0 7 27 24 59 39 75 47 72 10 -3z m-2736 47 c-10 -2 -26 -2
-35 0 -10 3 -2 5 17 5 19 0 27 -2 18 -5z m3235 -10 c15 -12 23 -31 24 -58 1
-22 -1 -33 -4 -25 -8 21 -25 30 -44 25 -27 -9 -51 18 -44 48 8 32 36 36 68 10z
m189 2 c65 -4 67 -5 61 -21 -7 -19 -44 -14 -106 15 -33 16 -36 19 -13 14 16
-3 42 -7 58 -8z m-3722 -5 c0 -5 -16 -10 -36 -10 -21 0 -33 4 -29 10 3 6 19
10 36 10 16 0 29 -4 29 -10z m2983 -66 c-6 -17 -29 -18 -39 -2 -5 7 -3 8 6 3
10 -6 12 -4 7 7 -3 9 -3 19 0 22 10 10 32 -15 26 -30z m-2763 6 c0 -5 7 -10
16 -10 8 0 13 -4 9 -9 -3 -5 -1 -12 5 -16 5 -3 10 -12 10 -19 0 -16 -147 -20
-170 -6 -8 6 -11 10 -6 10 5 0 3 6 -3 14 -16 19 -2 27 68 36 31 4 59 8 64 9 4
0 7 -3 7 -9z m3796 -21 c3 -6 2 -15 -3 -20 -12 -12 -75 9 -67 22 7 13 61 11
70 -2z m-1113 -46 c-8 -3 -13 -24 -13 -53 0 -27 -5 -52 -11 -55 -6 -4 -8 -13
-5 -20 2 -7 -2 -16 -11 -19 -8 -4 -13 -13 -9 -21 4 -10 -1 -15 -14 -15 -12 0
-20 7 -20 16 0 14 -7 15 -42 10 -41 -7 -42 -6 -20 9 12 9 22 22 22 30 0 8 8
20 18 27 10 7 21 21 25 31 4 11 16 21 26 24 11 3 21 13 24 24 3 10 13 19 24
18 10 0 13 -3 6 -6z m926 -14 c34 -12 41 -28 14 -30 -44 -3 -71 11 -59 30 9
13 6 13 45 0z m-236 -49 c3 -11 1 -18 -4 -14 -5 3 -9 12 -9 20 0 20 7 17 13
-6z m753 6 c14 -11 16 -18 7 -26 -12 -13 -69 -5 -78 11 -18 28 37 40 71 15z
m-970 -33 c-3 -17 -26 -32 -26 -16 0 8 20 33 26 33 1 0 1 -8 0 -17z m-2501
-13 c7 -11 -47 -70 -63 -70 -18 0 -22 33 -7 56 16 25 58 33 70 14z m-195 -9
c-8 -5 -31 -12 -50 -15 -33 -7 -34 -6 -16 9 11 8 34 15 50 15 22 -1 27 -3 16
-9z m-283 -63 c-3 -8 -6 -5 -6 6 -1 11 2 17 5 13 3 -3 4 -12 1 -19z m167 -3
c-4 -8 -10 -15 -15 -15 -4 0 -6 7 -3 15 4 8 10 15 15 15 4 0 6 -7 3 -15z"/>
<path d="M155 4040 c27 -12 43 -12 25 0 -8 5 -22 9 -30 9 -10 0 -8 -3 5 -9z"/>
<path d="M140 4010 c0 -5 5 -10 11 -10 5 0 7 5 4 10 -3 6 -8 10 -11 10 -2 0
-4 -4 -4 -10z"/>
<path d="M3726 2385 c-9 -14 -12 -25 -6 -25 5 0 10 5 10 11 0 5 5 7 10 4 15
-9 30 4 23 20 -8 21 -18 18 -37 -10z"/>
<path d="M854 2188 c-3 -4 2 -8 10 -8 9 0 16 -5 16 -11 0 -5 4 -8 10 -4 5 3 7
11 4 19 -5 14 -32 17 -40 4z"/>
<path d="M3505 1120 c4 -6 11 -8 16 -5 14 9 11 15 -7 15 -8 0 -12 -5 -9 -10z"/>
<path d="M2410 3341 c-14 -5 -47 -15 -74 -22 -28 -7 -45 -14 -39 -16 7 -3 9
-11 6 -19 -3 -9 1 -14 12 -14 11 0 15 -5 11 -15 -4 -11 2 -15 23 -15 16 0 31
-5 33 -11 2 -6 16 -12 31 -12 15 -1 27 -5 27 -9 0 -5 8 -8 18 -8 18 -1 192
-58 179 -59 -4 -1 -40 6 -78 15 -39 9 -73 13 -76 10 -3 -3 8 -8 23 -11 16 -4
40 -11 54 -16 22 -8 22 -8 -5 -3 -129 26 -301 -9 -374 -77 -20 -19 -20 -21 -5
-44 9 -14 24 -25 34 -25 25 0 190 -78 190 -89 0 -5 9 -11 20 -13 25 -4 22 -23
-2 -22 -10 0 -18 -3 -18 -8 0 -4 8 -8 18 -8 16 -1 16 -1 -1 -11 -18 -10 -18
-12 3 -26 12 -8 30 -13 41 -10 10 3 19 1 19 -4 0 -5 -6 -9 -12 -9 -7 -1 3 -8
22 -16 64 -29 220 2 220 44 0 6 7 12 15 12 8 0 15 5 15 11 0 5 5 7 10 4 6 -3
10 1 10 9 0 9 9 21 20 28 11 7 20 21 20 31 0 9 9 25 20 34 14 13 16 19 7 25
-8 5 -3 8 12 8 l24 0 -24 26 c-13 14 -60 43 -104 65 -44 21 -75 39 -68 39 22
0 157 -61 205 -93 15 -9 29 -13 32 -8 7 11 -62 53 -75 46 -5 -4 -9 -1 -9 5 0
8 10 9 30 5 28 -6 29 -5 26 29 -3 35 -25 66 -47 66 -9 0 -9 3 1 15 10 12 5 17
-28 30 -22 9 -42 25 -45 36 -3 10 -12 19 -20 19 -8 0 -22 11 -31 25 -14 21
-22 24 -57 21 -24 -2 -54 3 -72 12 -17 8 -42 17 -56 19 -15 1 -39 5 -56 7 -16
3 -41 1 -55 -3z m207 -217 c-3 -3 -12 -4 -19 -1 -8 3 -5 6 6 6 11 1 17 -2 13
-5z"/>
<path d="M2328 3183 c7 -3 16 -2 19 1 4 3 -2 6 -13 5 -11 0 -14 -3 -6 -6z"/>
<path d="M2415 3180 c11 -5 29 -9 40 -9 17 -1 17 1 5 9 -8 5 -26 9 -40 9 -23
0 -23 -1 -5 -9z"/>
<path d="M1637 3147 c-4 -10 -7 -26 -7 -35 1 -15 2 -15 11 1 6 10 9 25 7 35
-3 16 -4 15 -11 -1z"/>
<path d="M3220 3132 c0 -4 -22 -18 -50 -31 -27 -13 -48 -27 -45 -31 2 -4 -9
-19 -25 -34 -57 -50 -45 -56 105 -56 114 0 135 2 135 15 0 15 52 33 75 26 17
-5 79 10 68 17 -6 4 -13 18 -14 32 -3 18 -12 26 -34 30 -16 4 -46 14 -65 22
-35 16 -150 24 -150 10z"/>
<path d="M1646 3081 c-4 -7 -5 -15 -2 -18 9 -9 19 4 14 18 -4 11 -6 11 -12 0z"/>
<path d="M4445 3039 c-4 -6 -5 -13 -2 -16 7 -7 27 6 27 18 0 12 -17 12 -25 -2z"/>
<path d="M4288 3018 c-2 -18 -11 -24 -35 -26 -35 -3 -43 -16 -17 -26 25 -10
54 -7 54 5 0 6 7 9 15 5 18 -7 20 5 3 23 -11 10 -9 11 7 5 20 -7 20 -7 1 14
-24 27 -24 27 -28 0z"/>
<path d="M4373 3024 c-36 -15 -42 -28 -17 -38 20 -8 7 -28 -14 -22 -10 3 -24
1 -32 -4 -13 -8 -13 -11 -1 -22 10 -9 15 -10 18 -2 8 23 43 3 43 -25 1 -25 1
-25 16 -6 9 12 11 21 4 23 -15 5 -12 38 4 51 14 12 28 62 17 60 -3 0 -21 -7
-38 -15z"/>
<path d="M3050 2960 c0 -5 5 -10 10 -10 6 0 10 5 10 10 0 6 -4 10 -10 10 -5 0
-10 -4 -10 -10z"/>
<path d="M3183 2960 c-27 -11 -31 -24 -5 -16 9 3 64 8 122 11 58 4 107 9 109
11 9 8 -205 2 -226 -6z"/>
<path d="M3084 2945 c-8 -20 9 -68 26 -73 9 -3 11 1 7 17 -11 35 -18 67 -11
54 8 -18 25 -16 18 2 -8 19 -33 19 -40 0z"/>
<path d="M3245 2935 c-5 -2 -22 -6 -37 -9 -23 -5 -28 -12 -28 -36 0 -21 5 -30
16 -30 11 0 14 -5 10 -16 -3 -9 -6 -20 -6 -25 0 -6 -4 -7 -10 -4 -11 7 -13 -9
-4 -54 4 -17 11 -28 17 -24 6 3 7 1 3 -5 -11 -18 -22 -14 -34 11 l-11 22 3
-24 c3 -26 34 -44 52 -30 6 5 26 9 45 10 47 2 109 20 109 32 0 5 12 7 27 4 41
-8 53 2 53 42 0 35 -28 101 -55 128 -12 12 -121 18 -150 8z"/>
<path d="M1356 2905 c-4 -14 -10 -23 -15 -20 -5 2 -8 -6 -7 -20 1 -20 5 -23
26 -18 14 3 29 12 33 20 5 7 12 11 18 8 18 -12 8 18 -13 36 -28 25 -35 24 -42
-6z"/>
<path d="M3670 2902 c0 -7 8 -16 18 -19 9 -4 28 -15 41 -25 30 -23 42 -23 34
0 -10 26 -36 42 -57 36 -10 -4 -22 0 -27 7 -7 11 -9 11 -9 1z"/>
<path d="M4470 2900 c0 -5 7 -10 15 -10 8 0 15 5 15 10 0 6 -7 10 -15 10 -8 0
-15 -4 -15 -10z"/>
<path d="M2852 2824 c-27 -44 -40 -55 -74 -64 -78 -21 -312 -12 -412 17 -12 3
-16 1 -12 -6 4 -6 15 -11 24 -11 10 0 33 -8 52 -18 28 -14 57 -17 145 -16 225
2 211 0 251 42 38 39 67 88 62 102 -2 4 -18 -16 -36 -46z"/>
<path d="M3780 2864 c0 -4 8 -13 18 -21 16 -14 16 -14 -2 -9 -17 6 -17 4 -5
-11 7 -10 15 -20 16 -22 5 -7 33 21 33 34 0 6 -11 17 -25 23 -30 14 -35 15
-35 6z"/>
<path d="M4386 2855 c3 -7 12 -16 20 -19 7 -3 11 -12 8 -21 -5 -11 -2 -14 11
-8 16 6 17 2 11 -28 -6 -33 -6 -33 9 -11 19 27 32 28 38 5 3 -12 5 -8 6 9 1
18 -5 29 -19 33 -11 3 -20 13 -20 20 0 9 -6 12 -15 9 -9 -4 -15 0 -15 8 0 7
-9 14 -19 15 -13 1 -18 -3 -15 -12z"/>
<path d="M3110 2826 c0 -22 4 -35 10 -31 6 3 8 18 6 32 -8 40 -16 40 -16 -1z"/>
<path d="M3572 2838 c2 -16 6 -24 11 -19 5 5 5 17 -2 28 -9 16 -10 15 -9 -9z"/>
<path d="M3625 2850 c-3 -5 -1 -10 4 -10 6 0 11 5 11 10 0 6 -2 10 -4 10 -3 0
-8 -4 -11 -10z"/>
<path d="M2267 2799 c7 -7 15 -10 18 -7 3 3 -2 9 -12 12 -14 6 -15 5 -6 -5z"/>
<path d="M3605 2790 c3 -5 8 -10 11 -10 2 0 4 5 4 10 0 6 -5 10 -11 10 -5 0
-7 -4 -4 -10z"/>
<path d="M3640 2775 c-7 -9 -10 -18 -7 -21 3 -3 10 4 17 15 13 25 8 27 -10 6z"/>
<path d="M3735 2780 c-3 -5 -1 -10 4 -10 6 0 11 5 11 10 0 6 -2 10 -4 10 -3 0
-8 -4 -11 -10z"/>
<path d="M3815 2781 c-6 -11 9 -23 19 -14 9 9 7 23 -3 23 -6 0 -12 -4 -16 -9z"/>
<path d="M3121 2753 c0 -15 4 -37 8 -47 10 -27 21 1 14 37 -7 37 -23 44 -22
10z"/>
<path d="M3548 2744 c-3 -5 -2 -20 2 -34 6 -24 6 -24 12 -4 6 22 -6 53 -14 38z"/>
<path d="M3678 2743 c-10 -2 -18 -9 -18 -14 0 -14 26 -11 40 6 13 15 9 16 -22
8z"/>
<path d="M1458 2723 c-18 -5 -31 -30 -22 -44 3 -5 -1 -9 -8 -9 -10 0 -9 -3 2
-10 9 -5 19 -5 27 2 9 7 18 7 30 -3 14 -12 15 -12 9 0 -5 8 -4 16 2 20 14 8 4
51 -12 50 -6 -1 -18 -3 -28 -6z"/>
<path d="M3180 2673 c0 -5 4 -13 8 -18 10 -15 120 -62 162 -69 28 -6 23 -1
-25 21 -33 15 -76 38 -96 51 -39 23 -49 27 -49 15z"/>
<path d="M3656 2615 c5 -22 2 -26 -25 -31 -45 -9 -49 -24 -6 -24 24 0 34 4 29
11 -4 8 1 9 15 4 16 -5 26 -1 36 11 17 24 8 39 -12 22 -14 -11 -15 -10 -9 10
6 18 4 22 -14 22 -17 0 -19 -4 -14 -25z"/>
<path d="M3533 2623 c9 -2 25 -2 35 0 9 3 1 5 -18 5 -19 0 -27 -2 -17 -5z"/>
<path d="M3428 2563 c7 -3 16 -2 19 1 4 3 -2 6 -13 5 -11 0 -14 -3 -6 -6z"/>
<path d="M3468 2553 c6 -2 18 -2 25 0 6 3 1 5 -13 5 -14 0 -19 -2 -12 -5z"/>
<path d="M2465 2440 c-4 -6 -14 -9 -22 -5 -10 3 -22 -3 -30 -15 -8 -12 -26
-26 -40 -31 -22 -8 -25 -14 -19 -39 4 -22 2 -30 -9 -30 -9 0 -15 -10 -15 -24
0 -14 -4 -28 -10 -31 -14 -8 -13 -52 2 -61 8 -5 9 0 5 15 -3 13 -3 20 0 17 13
-13 103 49 103 71 0 7 7 13 15 13 8 0 15 4 15 8 0 5 13 23 29 40 34 39 36 76
4 80 -11 2 -24 -2 -28 -8z"/>
<path d="M2819 2441 c-14 -5 -34 -13 -46 -19 -11 -6 -32 -13 -48 -16 -15 -3
-35 -12 -45 -21 -9 -8 -22 -15 -28 -15 -7 0 -12 -7 -12 -15 0 -25 46 -46 110
-49 34 -2 67 -9 73 -15 6 -6 19 -11 28 -11 10 0 25 -8 34 -17 16 -16 18 -15
35 7 16 22 17 25 3 35 -12 9 -13 16 -4 33 12 23 7 44 -21 85 -20 28 -34 31
-79 18z"/>
<path d="M2994 2389 c-3 -6 -1 -16 5 -22 8 -8 11 -5 11 11 0 24 -5 28 -16 11z"/>
<path d="M2348 2012 c-16 -15 -28 -33 -28 -40 0 -7 -9 -30 -20 -52 -25 -50
-25 -59 3 -70 20 -8 20 -9 3 -9 -14 -1 -17 -4 -10 -11 14 -14 61 4 84 32 25
31 107 33 114 3 3 -11 32 -40 65 -65 66 -49 102 -102 75 -108 -22 -5 -36 -49
-24 -72 5 -10 10 -27 10 -38 0 -11 7 -23 16 -26 8 -3 13 -10 10 -15 -3 -5 18
-11 47 -13 46 -3 55 0 80 23 15 15 27 30 27 34 0 12 29 35 44 35 24 0 19 17
-6 24 -21 7 -20 8 12 20 33 12 35 16 36 59 0 26 -2 47 -6 47 -6 0 -30 44 -30
55 0 2 15 6 33 10 68 14 68 14 45 37 -16 16 -18 22 -7 29 10 6 8 9 -8 9 -17 0
-23 6 -23 23 0 13 6 29 13 36 10 10 8 12 -8 9 -18 -2 -47 14 -93 53 -12 10
-66 4 -172 -18 -26 -6 -32 -7 -110 -17 -68 -9 -120 2 -120 25 0 26 -20 23 -52
-9z m276 -156 c-7 -19 -34 -29 -34 -12 0 16 10 26 26 26 8 0 11 -6 8 -14z"/>
<path d="M1390 1605 c-2 -5 -2 -14 -1 -19 1 -5 -4 -13 -11 -17 -7 -5 -8 -9 -3
-9 22 0 32 15 24 35 -4 11 -8 16 -9 10z"/>
<path d="M3180 1460 c0 -5 5 -10 11 -10 5 0 7 5 4 10 -3 6 -8 10 -11 10 -2 0
-4 -4 -4 -10z"/>
<path d="M1637 1311 c2 -9 -4 -25 -15 -36 -10 -11 -20 -24 -23 -30 -2 -5 -8
-9 -14 -7 -5 2 -1 -6 9 -17 17 -19 17 -19 -6 -14 -12 3 -20 2 -16 -2 4 -5 3
-14 -4 -22 -6 -7 -8 -16 -5 -19 6 -6 -35 -50 -44 -47 -3 1 -5 -14 -3 -33 1
-20 0 -33 -4 -30 -3 3 -15 -3 -27 -14 -11 -11 -30 -21 -40 -23 -31 -6 -55 -18
-55 -28 0 -5 9 -4 20 3 16 10 24 10 41 0 12 -7 24 -11 27 -8 3 3 0 6 -6 6 -7
0 -12 5 -12 12 0 22 28 -15 32 -42 3 -24 15 -40 30 -40 3 0 5 19 3 43 -2 24 1
50 6 58 5 8 9 12 10 9 6 -40 6 -61 -2 -65 -5 -4 -9 -11 -9 -17 0 -44 127 193
135 253 7 50 -5 126 -20 126 -7 0 -10 -7 -8 -16z m-134 -286 c-3 -9 -8 -14
-10 -11 -3 3 -2 9 2 15 9 16 15 13 8 -4z"/>
<path d="M2610 1250 c-8 -4 -34 -14 -57 -21 -24 -7 -43 -16 -43 -21 0 -4 -9
-8 -20 -8 -11 0 -20 5 -20 10 0 6 -18 10 -40 10 -33 0 -38 -3 -33 -17 5 -13 3
-15 -13 -8 -36 15 -69 12 -66 -7 2 -14 -5 -18 -30 -19 -18 -1 -25 -3 -15 -6 9
-2 17 -9 17 -14 0 -18 2 -24 12 -36 6 -7 7 -13 3 -13 -8 0 -125 58 -140 70 -5
4 -28 13 -50 20 -22 7 -44 16 -49 21 -6 5 -14 9 -19 9 -17 0 16 -31 62 -58 78
-45 124 -88 114 -106 -4 -7 -1 -6 8 1 13 10 16 10 16 -2 0 -8 -6 -15 -14 -15
-7 0 -13 -6 -13 -14 0 -9 25 -20 68 -32 37 -9 72 -21 79 -26 13 -10 95 -5 173
10 30 7 76 14 103 17 26 4 47 10 47 16 0 5 8 9 17 9 23 0 102 85 99 107 -2 10
2 21 8 25 7 5 7 8 -2 8 -9 0 -11 7 -7 23 5 17 4 19 -4 7 -8 -10 -11 -11 -11
-2 0 7 -12 18 -27 25 -16 6 -34 17 -41 24 -7 7 -26 13 -42 13 -16 0 -34 2 -42
4 -7 3 -20 1 -28 -4z"/>
<path d="M1281 1038 c-7 -11 -9 -23 -5 -26 4 -4 9 -1 11 6 5 13 35 17 47 5 11
-11 36 -12 36 -1 0 5 -6 8 -12 5 -7 -2 -24 4 -39 14 -24 17 -25 17 -38 -3z"/>
<path d="M2160 1041 c0 -12 29 -23 41 -15 5 3 7 10 4 15 -8 12 -45 12 -45 0z"/>
<path d="M1316 948 c3 -4 9 -8 15 -8 5 0 9 4 9 8 0 5 -7 9 -15 9 -8 0 -12 -4
-9 -9z"/>
<path d="M3307 929 c7 -7 15 -10 18 -7 3 3 -2 9 -12 12 -14 6 -15 5 -6 -5z"/>
<path d="M1373 905 c0 -8 4 -12 9 -9 5 3 6 10 3 15 -9 13 -12 11 -12 -6z"/>
<path d="M1300 893 c0 -15 2 -15 9 -4 5 8 16 11 26 8 9 -4 14 -3 10 3 -11 17
-45 11 -45 -7z"/>
<path d="M1320 815 c0 -2 10 -10 23 -16 20 -11 21 -11 8 4 -13 16 -31 23 -31
12z"/>
<path d="M1375 800 c-3 -5 -2 -10 4 -10 5 0 13 5 16 10 3 6 2 10 -4 10 -5 0
-13 -4 -16 -10z"/>
<path d="M4348 647 c-3 -19 -2 -25 4 -19 6 6 8 18 6 28 -3 14 -5 12 -10 -9z"/>
<path d="M4325 650 c-3 -5 -1 -10 4 -10 6 0 11 5 11 10 0 6 -2 10 -4 10 -3 0
-8 -4 -11 -10z"/>
<path d="M4428 613 c6 -2 18 -2 25 0 6 3 1 5 -13 5 -14 0 -19 -2 -12 -5z"/>
<path d="M4336 511 c-5 -7 -17 -11 -27 -8 -11 3 -19 2 -19 -3 0 -11 36 -19 50
-10 7 4 10 14 8 21 -4 11 -6 11 -12 0z"/>
<path d="M4330 470 c-9 -6 -10 -10 -3 -10 6 0 15 5 18 10 8 12 4 12 -15 0z"/>
<path d="M4487 391 c-2 -10 -1 -25 4 -32 6 -10 9 -4 9 19 0 36 -5 42 -13 13z"/>
</g>
</svg>
